<svg width="27" height="27" viewBox="0 0 27 27" fill="none" xmlns="http://www.w3.org/2000/svg">
<path d="M9.68473 26.2622L8.94697 27L0.546973 18.6L1.28473 17.8622C1.47949 17.6675 1.74517 17.5596 2.02333 17.5623L2.53781 17.5674C3.11704 17.5731 3.58199 17.1081 3.5763 16.5289L3.57144 16.0344C3.56871 15.7562 3.67658 15.4906 3.87134 15.2958L13.1973 5.96984C13.6839 5.48328 14.3476 5.21372 15.0425 5.22045L17.1236 5.24061L17.1915 5.17267L16.2395 4.22067C15.8803 3.86143 15.8746 3.28466 16.2268 2.93241L17.7597 1.39951C18.2391 0.92014 18.8931 0.654612 19.5777 0.661339L21.6822 0.682016L25.2032 0.716915C26.0929 0.725734 26.8212 1.45405 26.8301 2.34375L26.865 5.86481L26.8856 7.96925C26.8924 8.65391 26.6268 9.30786 26.1475 9.78723L24.6146 11.3201C24.2623 11.6724 23.6855 11.6667 23.3263 11.3075L22.3743 10.3555L22.3064 10.4234L22.3265 12.5044C22.3333 13.1994 22.0637 13.8631 21.5771 14.3497L12.2512 23.6756C12.0564 23.8704 11.7907 23.9783 11.5126 23.9755L11.0181 23.9707C10.4388 23.965 9.97389 24.4299 9.97958 25.0092L9.98463 25.5236C9.98737 25.8018 9.87949 26.0675 9.68473 26.2622Z" fill="currentColor"/>
</svg>
