<svg width="52" height="52" viewBox="0 0 52 52" fill="none" xmlns="http://www.w3.org/2000/svg">
<path fill-rule="evenodd" clip-rule="evenodd" d="M25.9574 51.9149C40.2934 51.9149 51.9149 40.2934 51.9149 25.9574C51.9149 11.6215 40.2934 0 25.9574 0C11.6215 0 0 11.6215 0 25.9574C0 40.2934 11.6215 51.9149 25.9574 51.9149ZM19.3979 11.7708C21.0341 11.6985 21.5569 11.6809 25.7226 11.6809H25.7181C29.8851 11.6809 30.406 11.6985 32.0421 11.7708C33.675 11.8434 34.7903 12.0945 35.7681 12.4628C36.7779 12.8429 37.6311 13.3517 38.4843 14.1802C39.3376 15.008 39.8616 15.839 40.2547 16.8185C40.6317 17.7655 40.8906 18.8478 40.9673 20.4333C41.0408 22.022 41.06 22.5296 41.06 26.5745C41.06 30.6193 41.0408 31.1257 40.9673 32.7144C40.8906 34.2993 40.6317 35.3819 40.2547 36.3292C39.8616 37.3084 39.3376 38.1394 38.4843 38.9672C37.6321 39.7957 36.7776 40.3058 35.7691 40.6862C34.7932 41.0545 33.6773 41.3055 32.0443 41.3781C30.4082 41.4504 29.887 41.4681 25.721 41.4681C21.5556 41.4681 21.0331 41.4504 19.397 41.3781C17.7644 41.3055 16.6495 41.0545 15.6735 40.6862C14.6653 40.3058 13.8096 39.7957 12.9573 38.9672C12.1044 38.1394 11.5804 37.3084 11.1883 36.3289C10.8093 35.3819 10.5507 34.2996 10.4756 32.7141C10.4015 31.1254 10.383 30.6193 10.383 26.5745C10.383 22.5296 10.4022 22.0217 10.475 20.433C10.5485 18.8481 10.8073 17.7655 11.1876 16.8182C11.5807 15.839 12.1047 15.008 12.958 14.1802C13.8105 13.352 14.6663 12.8432 15.6751 12.4628C16.6504 12.0945 17.765 11.8434 19.3979 11.7708ZM25.2114 14.3647C24.9012 14.3645 24.6138 14.3644 24.3466 14.3648V14.3611C21.4878 14.3642 20.9395 14.3828 19.5245 14.4449C18.029 14.5116 17.217 14.7536 16.6763 14.9584C15.9605 15.2289 15.4492 15.5516 14.9124 16.0729C14.3755 16.5942 14.0425 17.0906 13.7645 17.7857C13.5546 18.3107 13.3047 19.0988 13.2363 20.5509C13.1628 22.121 13.1481 22.5901 13.1481 26.5673C13.1481 30.5445 13.1628 31.0162 13.2363 32.5862C13.3044 34.0383 13.5546 34.8265 13.7645 35.3508C14.0432 36.0462 14.3755 36.5414 14.9124 37.0627C15.4492 37.584 15.9605 37.9067 16.6763 38.1766C17.2173 38.3805 18.029 38.6231 19.5245 38.6901C21.1414 38.7615 21.6268 38.777 25.7226 38.777C29.818 38.777 30.3037 38.7615 31.9207 38.6901C33.4162 38.6237 34.2285 38.3817 34.7686 38.1769C35.4847 37.907 35.9944 37.5843 36.5312 37.063C37.0681 36.542 37.401 36.0471 37.6791 35.3521C37.889 34.8277 38.1389 34.0396 38.2073 32.5875C38.2808 31.0174 38.2968 30.5458 38.2968 26.5711C38.2968 22.5963 38.2808 22.1247 38.2073 20.5547C38.1392 19.1025 37.889 18.3144 37.6791 17.79C37.4004 17.095 37.0681 16.5985 36.5312 16.0773C35.9947 15.556 35.4844 15.2333 34.7686 14.9633C34.2279 14.7595 33.4162 14.5168 31.9207 14.4504C30.3034 14.3791 29.818 14.3648 25.7226 14.3648C25.5456 14.3648 25.3753 14.3647 25.2114 14.3647ZM32.8876 17.139C33.1903 16.9426 33.5462 16.8378 33.9102 16.8378C34.9264 16.8378 35.7509 17.6377 35.7509 18.6244C35.751 18.9779 35.6431 19.3235 35.441 19.6175C35.2388 19.9115 34.9514 20.1406 34.6151 20.276C34.2787 20.4114 33.9086 20.4469 33.5515 20.378C33.1944 20.3091 32.8664 20.1389 32.6089 19.889C32.3514 19.6391 32.1761 19.3206 32.105 18.9739C32.0339 18.6272 32.0703 18.2678 32.2096 17.9412C32.3489 17.6146 32.5849 17.3354 32.8876 17.139ZM17.8456 26.5745C17.8456 22.3506 21.3725 18.926 25.7226 18.926C30.0727 18.926 33.5987 22.3506 33.5987 26.5745C33.5987 30.7984 30.0727 34.2214 25.7226 34.2214C21.3725 34.2214 17.8456 30.7984 17.8456 26.5745ZM30.8355 26.5745C30.8355 23.8325 28.5462 21.6099 25.7226 21.6099C22.8987 21.6099 20.6097 23.8325 20.6097 26.5745C20.6097 29.3161 22.8987 31.539 25.7226 31.539C28.5462 31.539 30.8355 29.3161 30.8355 26.5745Z" fill="currentColor"/>
</svg>
