<svg width="38" height="40" viewBox="0 0 38 40" fill="none" xmlns="http://www.w3.org/2000/svg">
<path d="M36.452 14.7916C35.9889 14.3588 35.4473 14.0239 34.8581 13.8059C34.2689 13.588 33.6436 13.4914 33.0179 13.5215C32.3923 13.5517 31.7786 13.7081 31.2119 13.9818C30.6452 14.2555 30.1366 14.6411 29.7152 15.1166L24.6207 20.8609C24.1779 20.1078 23.5531 19.4847 22.8068 19.0519C22.0605 18.6192 21.2179 18.3915 20.3607 18.391H4.75088C3.49087 18.391 2.28247 18.9046 1.3915 19.8188C0.500538 20.733 0 21.973 0 23.2659L0 34.6408C0 35.9337 0.500538 37.1737 1.3915 38.0879C2.28247 39.0021 3.49087 39.5157 4.75088 39.5157H21.2966L36.7956 21.6653C37.6277 20.702 38.058 19.4419 37.9937 18.1564C37.9294 16.8708 37.3758 15.6625 36.452 14.7916ZM34.4312 19.5041L19.8777 36.2658H4.75088C4.33088 36.2658 3.92808 36.0946 3.63109 35.7898C3.3341 35.4851 3.16726 35.0718 3.16726 34.6408V23.2659C3.16726 22.8349 3.3341 22.4216 3.63109 22.1169C3.92808 21.8121 4.33088 21.6409 4.75088 21.6409H20.3607C20.8193 21.6389 21.2615 21.8157 21.5979 22.1356C21.9343 22.4555 22.1396 22.8945 22.1724 23.3639C22.2052 23.8333 22.063 24.2979 21.7746 24.6638C21.4861 25.0296 21.073 25.2694 20.6188 25.3345L12.4441 26.5321L12.8939 29.7496L21.067 28.5504C21.9635 28.4154 22.8073 28.033 23.5083 27.4439C24.2093 26.8549 24.741 26.0814 25.0467 25.2061L32.0574 17.3022C32.1983 17.142 32.3689 17.0123 32.5592 16.9205C32.7496 16.8287 32.9558 16.7767 33.1659 16.7676C33.5896 16.7502 34.0031 16.9029 34.3188 17.1933C34.6288 17.4863 34.8143 17.8924 34.8353 18.3243C34.8563 18.7562 34.7112 19.1793 34.4312 19.5025V19.5041ZM16.5062 15.3847L17.4199 16.0494L18.3337 15.3847C19.051 14.8647 25.338 10.1718 25.338 5.71609C25.3769 4.38095 24.8989 3.08434 24.0086 2.10987C23.1183 1.1354 21.8881 0.562381 20.5872 0.516147C19.4264 0.500926 18.3002 0.921004 17.4199 1.69751C16.5396 0.921004 15.4134 0.500926 14.2527 0.516147C12.9517 0.562381 11.7215 1.1354 10.8312 2.10987C9.94088 3.08434 9.46289 4.38095 9.50177 5.71609C9.50177 10.1718 15.7888 14.8647 16.5062 15.3847ZM14.2527 3.76611C14.4642 3.75175 14.6764 3.78394 14.8749 3.86052C15.0733 3.9371 15.2536 4.05631 15.4035 4.21017C15.5535 4.36403 15.6696 4.54898 15.7443 4.75264C15.8189 4.95631 15.8503 5.17398 15.8363 5.3911H19.0035C18.9895 5.17398 19.0209 4.95631 19.0955 4.75264C19.1702 4.54898 19.2864 4.36403 19.4363 4.21017C19.5862 4.05631 19.7665 3.9371 19.965 3.86052C20.1634 3.78394 20.3756 3.75175 20.5872 3.76611C21.0474 3.8135 21.4712 4.04434 21.7674 4.409C22.0635 4.77365 22.2084 5.24299 22.1708 5.71609C22.1708 7.46133 19.637 10.214 17.4199 12.0227C15.4562 10.3977 12.669 7.59132 12.669 5.71609C12.6314 5.24299 12.7763 4.77365 13.0725 4.409C13.3686 4.04434 13.7924 3.8135 14.2527 3.76611Z" fill="currentColor"/>
</svg>
