<svg width="40" height="33" viewBox="0 0 40 33" fill="none" xmlns="http://www.w3.org/2000/svg">
<path d="M34 0.515747H6L5.5 1.01575C2 5.01575 0 10.1824 0 15.5157C0 24.6824 3.66667 32.1824 8.33333 32.1824C12 32.1824 13.8333 26.8491 14.6667 23.8491H25.3333C26.1667 26.8491 28 32.1824 31.6667 32.1824C36.3333 32.1824 40 24.6824 40 15.5157C40 10.1824 38 5.01575 34.5 1.01575L34 0.515747ZM31.6667 28.8491C30.6667 28.8491 29 25.3491 28.3333 21.8491L28 20.5157H12L11.6667 21.8491C11 25.3491 9.33333 28.8491 8.33333 28.8491C6.66667 28.8491 3.33333 23.6824 3.33333 15.5157C3.33333 11.3491 4.83333 7.18241 7.5 3.84908H32.6667C35.3333 7.18241 36.6667 11.3491 36.6667 15.5157C36.6667 23.6824 33.3333 28.8491 31.6667 28.8491Z" fill="currentColor"/>
<path d="M13.3338 7.18298H10.0004V10.5163H6.66711V13.8496H10.0004V17.183H13.3338V13.8496H16.6671V10.5163H13.3338V7.18298Z" fill="currentColor"/>
<path d="M30.8329 12.183C32.2136 12.183 33.3329 11.0637 33.3329 9.68298C33.3329 8.30227 32.2136 7.18298 30.8329 7.18298C29.4522 7.18298 28.3329 8.30227 28.3329 9.68298C28.3329 11.0637 29.4522 12.183 30.8329 12.183Z" fill="currentColor"/>
<path d="M25.8329 17.183C27.2136 17.183 28.3329 16.0637 28.3329 14.683C28.3329 13.3023 27.2136 12.183 25.8329 12.183C24.4522 12.183 23.3329 13.3023 23.3329 14.683C23.3329 16.0637 24.4522 17.183 25.8329 17.183Z" fill="currentColor"/>
</svg>
