<svg width="41" height="42" viewBox="0 0 41 42" fill="none" xmlns="http://www.w3.org/2000/svg">
<path d="M24.2585 28.2947C19.2845 26.1887 15.3292 22.2241 13.2347 17.2453L19.043 11.4268L8.34889 0.724162L2.93181 6.13953C1.99223 7.08447 1.24937 8.20635 0.746185 9.44026C0.243003 10.6742 -0.0105031 11.9956 0.000333295 13.3281C0.000333295 25.71 15.8057 41.5154 28.1876 41.5154C29.52 41.527 30.8414 41.2739 32.0751 40.7706C33.3089 40.2674 34.4304 39.5241 35.3745 38.5839L40.7916 33.1668L30.089 22.4642L24.2585 28.2947ZM32.9572 36.1683C32.3299 36.7902 31.5851 37.2812 30.7663 37.6126C29.9475 37.944 29.0709 38.1092 28.1876 38.0987C17.5396 38.0987 3.41697 23.9761 3.41697 13.3281C3.40691 12.4446 3.57237 11.5679 3.90374 10.7489C4.23512 9.92985 4.72581 9.18474 5.34737 8.5568L8.34889 5.55528L14.2204 11.4268L9.20647 16.4407L9.625 17.4896C10.8571 20.7855 12.7833 23.778 15.273 26.2644C17.7627 28.7509 20.7577 30.6731 24.0552 31.901L25.0904 32.2956L30.089 27.2953L35.9605 33.1668L32.9572 36.1683ZM23.9168 3.93238V0.515747C28.446 0.520721 32.7883 2.32215 35.991 5.52479C39.1936 8.72742 40.995 13.0697 41 17.5989H37.5834C37.5793 13.9756 36.1381 10.5018 33.576 7.93971C31.0139 5.37762 27.5402 3.93645 23.9168 3.93238ZM23.9168 10.7657V7.34902C26.6344 7.35173 29.24 8.4325 31.1616 10.3541C33.0832 12.2758 34.164 14.8813 34.1667 17.5989H30.7501C30.7501 15.7866 30.0301 14.0486 28.7487 12.7671C27.4672 11.4856 25.7291 10.7657 23.9168 10.7657Z" fill="currentColor"/>
</svg>
