<svg width="40" height="40" viewBox="0 0 40 40" fill="none" xmlns="http://www.w3.org/2000/svg">
<path d="M22.23 0.855792C21.6179 0.304852 20.8235 0 20 0C19.1765 0 18.3821 0.304852 17.77 0.855792L0 16.8491V34.1825C0 35.597 0.561903 36.9535 1.5621 37.9537C2.56229 38.9539 3.91885 39.5158 5.33333 39.5158H34.6667C36.0812 39.5158 37.4377 38.9539 38.4379 37.9537C39.4381 36.9535 40 35.597 40 34.1825V16.8491L22.23 0.855792ZM25 36.1775H15V27.8008C15 26.4747 15.5268 25.2029 16.4645 24.2653C17.4021 23.3276 18.6739 22.8008 20 22.8008C21.3261 22.8008 22.5979 23.3276 23.5355 24.2653C24.4732 25.2029 25 26.4747 25 27.8008V36.1775ZM36.6667 34.1775C36.6667 34.7079 36.456 35.2166 36.0809 35.5917C35.7058 35.9668 35.1971 36.1775 34.6667 36.1775H28.3333V27.8008C28.3333 25.5907 27.4554 23.471 25.8926 21.9082C24.3298 20.3454 22.2101 19.4675 20 19.4675C17.7899 19.4675 15.6702 20.3454 14.1074 21.9082C12.5446 23.471 11.6667 25.5907 11.6667 27.8008V36.1775H5.33333C4.8029 36.1775 4.29419 35.9668 3.91912 35.5917C3.54405 35.2166 3.33333 34.7079 3.33333 34.1775V18.3325L20 3.33246L36.6667 18.3325V34.1775Z" fill="currentColor"/>
</svg>
