<svg width="40" height="41" viewBox="0 0 40 41" fill="none" xmlns="http://www.w3.org/2000/svg">
<path d="M20 40.5157C16.0444 40.5157 12.1776 39.3428 8.8886 37.1451C5.59962 34.9475 3.03617 31.8239 1.52242 28.1694C0.00866572 24.5149 -0.387401 20.4936 0.384303 16.6139C1.15601 12.7343 3.06082 9.17067 5.85787 6.37362C8.65492 3.57657 12.2186 1.67175 16.0982 0.90005C19.9778 0.128346 23.9992 0.524413 27.6537 2.03817C31.3082 3.55192 34.4318 6.11537 36.6294 9.40435C38.827 12.6933 40 16.5601 40 20.5158C39.9943 25.8183 37.8853 30.9021 34.1358 34.6516C30.3863 38.401 25.3026 40.51 20 40.5157ZM20 3.84909C16.7036 3.84909 13.4813 4.82657 10.7405 6.65793C7.99968 8.48928 5.86348 11.0923 4.60202 14.1377C3.34056 17.1831 3.0105 20.5342 3.65359 23.7673C4.29667 27.0003 5.88402 29.97 8.21489 32.3009C10.5458 34.6317 13.5155 36.2191 16.7485 36.8622C19.9815 37.5053 23.3326 37.1752 26.3781 35.9137C29.4235 34.6523 32.0265 32.5161 33.8578 29.7753C35.6892 27.0344 36.6667 23.8121 36.6667 20.5158C36.6618 16.097 34.9043 11.8606 31.7798 8.736C28.6552 5.61145 24.4188 3.85394 20 3.84909ZM29.4433 26.7591L27.2267 24.2691C25.1892 25.9845 22.6576 27.0051 20 27.1824C17.344 27.0053 14.8137 25.9859 12.7767 24.2724L10.5567 26.7591C13.2031 29.02 16.5237 30.3409 20 30.5157C23.4763 30.3409 26.7969 29.02 29.4433 26.7591ZM23.3333 17.1824V18.8491H30V17.1824C30 16.2984 29.6488 15.4505 29.0237 14.8254C28.3986 14.2003 27.5507 13.8491 26.6667 13.8491C25.7826 13.8491 24.9348 14.2003 24.3096 14.8254C23.6845 15.4505 23.3333 16.2984 23.3333 17.1824ZM16.6667 15.5158H10V18.8491H16.6667V15.5158Z" fill="currentColor"/>
</svg>
