<svg width="36" height="30" viewBox="0 0 36 30" fill="none" xmlns="http://www.w3.org/2000/svg">
<path d="M1.8 0.000610352H10.8C11.2774 0.000610352 11.7352 0.198154 12.0728 0.549785C12.4104 0.901416 12.6 1.37833 12.6 1.87561V28.1256C12.6 28.6229 12.4104 29.0998 12.0728 29.4514C11.7352 29.8031 11.2774 30.0006 10.8 30.0006H1.8C1.32261 30.0006 0.864773 29.8031 0.527208 29.4514C0.189642 29.0998 0 28.6229 0 28.1256V1.87561C0 1.37833 0.189642 0.901416 0.527208 0.549785C0.864773 0.198154 1.32261 0.000610352 1.8 0.000610352ZM1.8 20.6256V24.3756H5.4V20.6256H1.8ZM18 5.62561H32.4C33.3548 5.62561 34.2705 6.0207 34.9456 6.72396C35.6207 7.42722 36 8.38105 36 9.37561V20.6256C36 21.6202 35.6207 22.574 34.9456 23.2773C34.2705 23.9805 33.3548 24.3756 32.4 24.3756H18C17.0452 24.3756 16.1295 23.9805 15.4544 23.2773C14.7793 22.574 14.4 21.6202 14.4 20.6256V9.37561C14.4 8.38105 14.7793 7.42722 15.4544 6.72396C16.1295 6.0207 17.0452 5.62561 18 5.62561ZM21.6 26.2506H28.8C29.2774 26.2506 29.7352 26.4482 30.0728 26.7998C30.4104 27.1514 30.6 27.6283 30.6 28.1256C30.6 28.6229 30.4104 29.0998 30.0728 29.4514C29.7352 29.8031 29.2774 30.0006 28.8 30.0006H21.6C21.1226 30.0006 20.6648 29.8031 20.3272 29.4514C19.9896 29.0998 19.8 28.6229 19.8 28.1256C19.8 27.6283 19.9896 27.1514 20.3272 26.7998C20.6648 26.4482 21.1226 26.2506 21.6 26.2506Z" fill="currentColor"/>
</svg>
