<svg width="44" height="44" viewBox="0 0 44 44" fill="none" xmlns="http://www.w3.org/2000/svg">
<path fill-rule="evenodd" clip-rule="evenodd" d="M6.45076 6.45076C10.5752 2.32636 16.1672 0.00643904 22 0C34.1307 0 44 9.86933 44 22C43.9936 27.8328 41.6736 33.4248 37.5492 37.5492C33.4248 41.6736 27.8328 43.9936 22 44C9.86933 44 0 34.1296 0 22C0.00643904 16.1672 2.32636 10.5752 6.45076 6.45076ZM30.1233 25.4566C31.7871 26.5247 32.6921 27.332 32.9485 27.6051C32.9718 27.6301 32.988 27.6608 32.9954 27.6941C33.0028 27.7274 33.0012 27.7622 32.9907 27.7946C32.6626 28.749 32.2441 29.6699 31.7409 30.5447C31.2502 31.3892 30.6859 32.1886 30.0545 32.9338C30.0323 32.9598 30.0034 32.9792 29.971 32.9901C29.9386 33.001 29.9038 33.0029 29.8704 32.9957C29.393 32.894 27.3953 32.4029 24.6295 30.8806C21.8038 29.3273 20.3119 28.186 18.0308 25.9128C15.7497 23.6396 14.6733 22.1934 13.12 19.3706C11.5976 16.6049 11.107 14.6081 11.0044 14.1298C10.9971 14.0965 10.9989 14.0618 11.0098 14.0294C11.0207 13.9971 11.0402 13.9683 11.0663 13.9462C11.8115 13.3147 12.6109 12.7502 13.4554 12.2593C14.3301 11.756 15.251 11.3375 16.2055 11.0095C16.2382 10.9988 16.2732 10.9971 16.3068 11.0046C16.3405 11.0121 16.3714 11.0286 16.3965 11.0522C16.6695 11.3086 17.4759 12.2136 18.5455 13.8769C19.6229 15.553 20.2947 16.7885 20.4514 17.1436C20.4652 17.1748 20.4703 17.2093 20.4661 17.2432C20.4618 17.2771 20.4484 17.3092 20.4273 17.3361C19.9819 17.9067 19.1633 18.8683 19.1191 18.9198C18.9517 19.1145 18.8822 19.1953 18.8712 19.2834C18.8635 19.3461 18.8853 19.4124 18.9226 19.5258C19.0798 20.0046 19.9112 21.5304 21.2086 22.8308C22.5061 24.1312 23.995 24.9218 24.4743 25.079C24.5875 25.1159 24.6536 25.1374 24.7162 25.1297C24.8043 25.1187 24.8851 25.0494 25.0798 24.8825C25.1314 24.8383 26.093 24.0202 26.6641 23.5748C26.691 23.5537 26.7231 23.5403 26.757 23.536C26.7909 23.5318 26.8253 23.5369 26.8566 23.5507C27.2112 23.7074 28.4472 24.3792 30.1233 25.4566Z" fill="currentColor"/>
</svg>
