<svg width="31" height="24" viewBox="0 0 31 24" fill="none" xmlns="http://www.w3.org/2000/svg">
<path d="M30.9783 7.58467C30.9748 7.53768 30.9707 7.49074 30.9659 7.44387C30.8285 5.42657 29.9564 3.53772 28.5251 2.15695C27.0937 0.776174 25.2091 0.00581437 23.25 0.00069167H7.75C5.76342 -0.00857654 3.85016 0.774729 2.40978 2.18703C0.969404 3.59934 0.113264 5.53144 0.02015 7.57987C0.00465002 7.70627 0 7.83747 0 7.98466V18.4006C0 19.8806 0.57815 21.3254 1.5841 22.3622C2.60525 23.4094 3.98558 23.9982 5.425 24.0006C8.215 24.0006 9.3062 22.4006 10.85 19.2006C11.0763 18.7334 12.3876 16.0006 15.5 16.0006C18.5938 16.0006 19.9221 18.7318 20.15 19.2006C21.7062 22.4006 22.785 24.0006 25.575 24.0006C27.0087 24.0006 28.4084 23.4038 29.4128 22.3654C30.4273 21.3113 30.9977 19.8865 31 18.4006V8.00067C31 7.84867 30.9938 7.71267 30.9783 7.58467ZM7.75 11.2503C7.33717 11.2599 6.92664 11.1843 6.54251 11.0279C6.15838 10.8715 5.80839 10.6375 5.51308 10.3395C5.21778 10.0416 4.98311 9.68575 4.82287 9.29291C4.66262 8.90007 4.58002 8.47813 4.57992 8.05188C4.57981 7.62563 4.66221 7.20366 4.82226 6.81073C4.98232 6.4178 5.21681 6.06184 5.51197 5.76375C5.80713 5.46566 6.15701 5.23144 6.54107 5.07485C6.92513 4.91826 7.33562 4.84245 7.74845 4.85187C8.55842 4.87036 9.32919 5.21543 9.89577 5.81321C10.4624 6.411 10.7797 7.21398 10.7799 8.05028C10.7801 8.88658 10.4631 9.68973 9.89686 10.2878C9.33057 10.8859 8.55996 11.2313 7.75 11.2503ZM23.25 3.25028C23.6611 3.25028 24.0553 3.41885 24.346 3.71891C24.6367 4.01897 24.8 4.42593 24.8 4.85028C24.8 5.27462 24.6367 5.68159 24.346 5.98164C24.0553 6.2817 23.6611 6.45027 23.25 6.45027C22.8389 6.45027 22.4447 6.2817 22.154 5.98164C21.8633 5.68159 21.7 5.27462 21.7 4.85028C21.7 4.42593 21.8633 4.01897 22.154 3.71891C22.4447 3.41885 22.8389 3.25028 23.25 3.25028ZM20.15 9.65026C19.7389 9.65026 19.3447 9.48169 19.054 9.18163C18.7633 8.88157 18.6 8.47461 18.6 8.05027C18.6 7.62592 18.7633 7.21896 19.054 6.9189C19.3447 6.61884 19.7389 6.45027 20.15 6.45027C20.5611 6.45027 20.9553 6.61884 21.246 6.9189C21.5367 7.21896 21.7 7.62592 21.7 8.05027C21.7 8.47461 21.5367 8.88157 21.246 9.18163C20.9553 9.48169 20.5611 9.65026 20.15 9.65026ZM23.25 12.8502C22.8389 12.8502 22.4447 12.6817 22.154 12.3816C21.8633 12.0816 21.7 11.6746 21.7 11.2503C21.7 10.8259 21.8633 10.4189 22.154 10.1189C22.4447 9.81883 22.8389 9.65026 23.25 9.65026C23.6611 9.65026 24.0553 9.81883 24.346 10.1189C24.6367 10.4189 24.8 10.8259 24.8 11.2503C24.8 11.6746 24.6367 12.0816 24.346 12.3816C24.0553 12.6817 23.6611 12.8502 23.25 12.8502ZM26.35 9.65026C25.9389 9.65026 25.5447 9.48169 25.254 9.18163C24.9633 8.88157 24.8 8.47461 24.8 8.05027C24.8 7.62592 24.9633 7.21896 25.254 6.9189C25.5447 6.61884 25.9389 6.45027 26.35 6.45027C26.7611 6.45027 27.1553 6.61884 27.446 6.9189C27.7367 7.21896 27.9 7.62592 27.9 8.05027C27.9 8.47461 27.7367 8.88157 27.446 9.18163C27.1553 9.48169 26.7611 9.65026 26.35 9.65026Z" fill="currentColor"/>
</svg>
