<svg width="20" height="20" viewBox="0 0 20 20" fill="none" xmlns="http://www.w3.org/2000/svg">
<path d="M13.125 0.625122H6.875C5.83947 0.625122 5 1.46459 5 2.50012V17.5001C5 18.5357 5.83947 19.3751 6.875 19.3751H13.125C14.1605 19.3751 15 18.5357 15 17.5001V2.50012C15 1.46459 14.1605 0.625122 13.125 0.625122Z" stroke="currentColor" stroke-width="1.5" stroke-linecap="round" stroke-linejoin="round"/>
<path d="M6.875 0.625122H7.8125C7.89538 0.625122 7.97487 0.658046 8.03347 0.716651C8.09208 0.775256 8.125 0.854742 8.125 0.937622C8.125 1.10338 8.19085 1.26235 8.30806 1.37956C8.42527 1.49677 8.58424 1.56262 8.75 1.56262H11.25C11.4158 1.56262 11.5747 1.49677 11.6919 1.37956C11.8092 1.26235 11.875 1.10338 11.875 0.937622C11.875 0.854742 11.9079 0.775256 11.9665 0.716651C12.0251 0.658046 12.1046 0.625122 12.1875 0.625122H13.125" stroke="currentColor" stroke-width="1.5" stroke-linecap="round" stroke-linejoin="round"/>
</svg>
