<svg width="19" height="19" viewBox="0 0 19 19" fill="none" xmlns="http://www.w3.org/2000/svg">
<path d="M9.5 0.000610352C4.25353 0.000610352 0 4.25414 0 9.50061C0 14.7389 4.26221 19.0006 9.5 19.0006C14.746 19.0006 19 14.7466 19 9.50061C19 4.26237 14.7382 0.000610352 9.5 0.000610352ZM14.4327 10.9621H8.95192C8.90347 10.9621 8.857 10.9429 8.82274 10.9086C8.78848 10.8744 8.76923 10.8279 8.76923 10.7795V3.10638C8.76923 3.05793 8.78848 3.01146 8.82274 2.9772C8.857 2.94294 8.90347 2.92369 8.95192 2.92369H10.0481C10.0965 2.92369 10.143 2.94294 10.1773 2.9772C10.2115 3.01146 10.2308 3.05793 10.2308 3.10638V9.50061H14.4327C14.4811 9.50061 14.5276 9.51986 14.5619 9.55412C14.5961 9.58838 14.6154 9.63485 14.6154 9.6833V10.7795C14.6154 10.8279 14.5961 10.8744 14.5619 10.9086C14.5276 10.9429 14.4811 10.9621 14.4327 10.9621Z" fill="currentColor"/>
</svg>
