<svg width="52" height="52" viewBox="0 0 52 52" fill="none" xmlns="http://www.w3.org/2000/svg">
<path fill-rule="evenodd" clip-rule="evenodd" d="M51.9149 25.9574C51.9149 40.2934 40.2934 51.9149 25.9574 51.9149C11.6215 51.9149 0 40.2934 0 25.9574C0 11.6215 11.6215 0 25.9574 0C40.2934 0 51.9149 11.6215 51.9149 25.9574ZM38.571 12.9787H19.6658C19.3964 12.9787 19.1379 13.085 18.9471 13.2759L14.4569 17.7648C14.2661 17.9557 14.1586 18.2142 14.1586 18.4848V36.3692C14.1586 36.9309 14.614 37.3852 15.1757 37.3852H20.7711V41.9743C20.7711 42.4201 21.3099 42.6435 21.6252 42.3283L26.5683 37.3852H30.0123C30.2817 37.3852 30.5402 37.2788 30.7311 37.088L39.2898 28.5305C39.4806 28.3397 39.5882 28.0811 39.5882 27.8117V13.9947C39.5882 13.4329 39.1327 12.9787 38.571 12.9787ZM38.7619 27.1812C38.7619 27.639 38.5831 28.0703 38.2593 28.394L35.1693 31.4841C34.8395 31.8102 34.4107 31.9866 33.9564 31.9866H29.9169L26.706 35.1975C26.4222 35.4813 26.0453 35.6384 25.6454 35.6384C24.8155 35.6384 24.1402 34.9643 24.1402 34.1344V31.9866H20.7711C19.8241 31.9866 19.0546 31.2171 19.0546 30.27V15.5215C19.0546 14.5745 19.8241 13.805 20.7711 13.805H37.0453C37.9924 13.805 38.7619 14.5745 38.7619 15.5215V27.1812ZM20.7714 15.0131H37.0455C37.3258 15.0131 37.5541 15.2402 37.5541 15.5216V27.1812C37.5541 27.3153 37.5009 27.4446 37.4055 27.54L34.3154 30.6301C34.22 30.7243 34.0907 30.7786 33.9566 30.7786H29.417L25.8522 34.3435C25.6662 34.5295 25.3484 34.3978 25.3484 34.1345V30.7786H20.7714C20.4899 30.7786 20.2628 30.5503 20.2628 30.2701V15.5216C20.2628 15.2402 20.4899 15.0131 20.7714 15.0131ZM28.2791 24.6758C28.3455 24.6758 28.3999 24.6215 28.3999 24.555V18.6938C28.3999 18.6262 28.3455 18.573 28.2791 18.573H26.4864C26.4187 18.573 26.3656 18.6262 26.3656 18.6938V24.555C26.3656 24.6215 26.4187 24.6758 26.4864 24.6758H28.2791ZM34.3819 24.6758C34.4483 24.6758 34.5027 24.6215 34.5027 24.555V18.6938C34.5027 18.6262 34.4483 18.573 34.3819 18.573H32.5892C32.5228 18.573 32.4684 18.6262 32.4684 18.6938V24.555C32.4684 24.6215 32.5228 24.6758 32.5892 24.6758H34.3819Z" fill="currentColor"/>
</svg>
