<svg width="52" height="52" viewBox="0 0 52 52" fill="none" xmlns="http://www.w3.org/2000/svg">
<path fill-rule="evenodd" clip-rule="evenodd" d="M25.9574 51.9149C40.2934 51.9149 51.9149 40.2934 51.9149 25.9574C51.9149 11.6215 40.2934 0 25.9574 0C11.6215 0 0 11.6215 0 25.9574C0 40.2934 11.6215 51.9149 25.9574 51.9149ZM31.218 19.7529V30.9822C31.218 35.3751 27.6633 38.9362 23.2784 38.9362C18.5948 38.9362 14.8585 34.8736 15.389 30.0741C15.7912 26.4361 18.7208 23.4928 22.3512 23.0808C22.8425 23.0251 23.3261 23.0143 23.7985 23.0449C24.0334 23.0601 24.2124 23.2634 24.2124 23.4992L24.2124 26.8133C24.2124 27.0889 23.971 27.293 23.6975 27.2624C23.3887 27.2279 23.0685 27.231 22.7417 27.2766C21.0958 27.5061 19.7718 28.8591 19.5707 30.5117C19.2862 32.8508 21.1578 34.8301 23.46 34.7209C25.474 34.6254 27.0147 32.8682 27.0147 30.8483V12.2539C27.0147 12.0026 27.218 11.7989 27.4688 11.7989H31.2316C31.4731 11.7989 31.6831 11.9816 31.6991 12.223C31.871 14.8239 33.624 17.6595 37.3151 17.869C37.5605 17.883 37.7565 18.0775 37.7565 18.3238V21.6299C37.7565 21.8841 37.5469 22.0931 37.2933 22.0859C32.5343 21.9507 31.218 19.7529 31.218 19.7529Z" fill="currentColor"/>
</svg>
