<svg width="52" height="52" viewBox="0 0 52 52" fill="none" xmlns="http://www.w3.org/2000/svg">
<path fill-rule="evenodd" clip-rule="evenodd" d="M25.9574 51.9149C40.2934 51.9149 51.9149 40.2934 51.9149 25.9574C51.9149 11.6215 40.2934 0 25.9574 0C11.6215 0 0 11.6215 0 25.9574C0 40.2934 11.6215 51.9149 25.9574 51.9149ZM10.6189 16.5185C10.8584 28.3102 16.6067 35.3966 26.6847 35.3966H27.256V28.6504C30.9592 29.0283 33.7595 31.8062 34.8834 35.3966H40.116C38.6789 30.0299 34.9017 27.063 32.5435 25.9292C34.9017 24.5308 38.2181 21.1294 39.0103 16.5185H34.2568C33.225 20.2601 30.167 23.6615 27.256 23.9828V16.5185H22.5024V29.5952C19.5545 28.8393 15.8329 25.1733 15.6671 16.5185H10.6189Z" fill="currentColor"/>
</svg>
