<svg width="422" height="195" viewBox="0 0 422 195" fill="none" xmlns="http://www.w3.org/2000/svg">
<path d="M356.295 194.5H12C5.92487 194.5 1 189.575 1 183.5V74.119C1 71.1646 2.18844 68.3344 4.2977 66.2657L19.3583 51.4948C23.612 47.3228 23.7709 40.5226 19.7167 36.1565L3.87795 19.0993C2.02808 17.1072 1 14.4891 1 11.7705C1 5.82213 5.82211 1 11.7705 1H410C416.075 1 421 5.92487 421 12V129.756C421 138.237 417.634 146.37 411.641 152.37L378.936 185.114C372.934 191.123 364.789 194.5 356.295 194.5Z" stroke="white"/>
</svg>
