<svg width="26" height="26" viewBox="0 0 26 26" fill="none" xmlns="http://www.w3.org/2000/svg">
<path id="Vector" d="M15.6 9.1H10.4C10.0552 9.1 9.72456 9.23696 9.48076 9.48076C9.23696 9.72456 9.1 10.0552 9.1 10.4V15.6C9.1 15.9448 9.23696 16.2754 9.48076 16.5192C9.72456 16.763 10.0552 16.9 10.4 16.9H15.6C15.9448 16.9 16.2754 16.763 16.5192 16.5192C16.763 16.2754 16.9 15.9448 16.9 15.6V10.4C16.9 10.0552 16.763 9.72456 16.5192 9.48076C16.2754 9.23696 15.9448 9.1 15.6 9.1ZM14.3 14.3H11.7V11.7H14.3V14.3ZM24.7 14.3C25.0448 14.3 25.3754 14.163 25.6192 13.9192C25.863 13.6754 26 13.3448 26 13C26 12.6552 25.863 12.3246 25.6192 12.0808C25.3754 11.837 25.0448 11.7 24.7 11.7H22.1V9.1H24.7C25.0448 9.1 25.3754 8.96304 25.6192 8.71924C25.863 8.47544 26 8.14478 26 7.8C26 7.45522 25.863 7.12456 25.6192 6.88076C25.3754 6.63696 25.0448 6.5 24.7 6.5H21.866C21.6719 5.95478 21.3589 5.4596 20.9496 5.05037C20.5404 4.64114 20.0452 4.32811 19.5 4.134V1.3C19.5 0.955218 19.363 0.624558 19.1192 0.380761C18.8754 0.136964 18.5448 0 18.2 0C17.8552 0 17.5246 0.136964 17.2808 0.380761C17.037 0.624558 16.9 0.955218 16.9 1.3V3.9H14.3V1.3C14.3 0.955218 14.163 0.624558 13.9192 0.380761C13.6754 0.136964 13.3448 0 13 0C12.6552 0 12.3246 0.136964 12.0808 0.380761C11.837 0.624558 11.7 0.955218 11.7 1.3V3.9H9.1V1.3C9.1 0.955218 8.96304 0.624558 8.71924 0.380761C8.47544 0.136964 8.14478 0 7.8 0C7.45522 0 7.12456 0.136964 6.88076 0.380761C6.63696 0.624558 6.5 0.955218 6.5 1.3V4.134C5.95478 4.32811 5.4596 4.64114 5.05037 5.05037C4.64114 5.4596 4.32811 5.95478 4.134 6.5H1.3C0.955218 6.5 0.624558 6.63696 0.380761 6.88076C0.136964 7.12456 0 7.45522 0 7.8C0 8.14478 0.136964 8.47544 0.380761 8.71924C0.624558 8.96304 0.955218 9.1 1.3 9.1H3.9V11.7H1.3C0.955218 11.7 0.624558 11.837 0.380761 12.0808C0.136964 12.3246 0 12.6552 0 13C0 13.3448 0.136964 13.6754 0.380761 13.9192C0.624558 14.163 0.955218 14.3 1.3 14.3H3.9V16.9H1.3C0.955218 16.9 0.624558 17.037 0.380761 17.2808C0.136964 17.5246 0 17.8552 0 18.2C0 18.5448 0.136964 18.8754 0.380761 19.1192C0.624558 19.363 0.955218 19.5 1.3 19.5H4.134C4.32811 20.0452 4.64114 20.5404 5.05037 20.9496C5.4596 21.3589 5.95478 21.6719 6.5 21.866V24.7C6.5 25.0448 6.63696 25.3754 6.88076 25.6192C7.12456 25.863 7.45522 26 7.8 26C8.14478 26 8.47544 25.863 8.71924 25.6192C8.96304 25.3754 9.1 25.0448 9.1 24.7V22.1H11.7V24.7C11.7 25.0448 11.837 25.3754 12.0808 25.6192C12.3246 25.863 12.6552 26 13 26C13.3448 26 13.6754 25.863 13.9192 25.6192C14.163 25.3754 14.3 25.0448 14.3 24.7V22.1H16.9V24.7C16.9 25.0448 17.037 25.3754 17.2808 25.6192C17.5246 25.863 17.8552 26 18.2 26C18.5448 26 18.8754 25.863 19.1192 25.6192C19.363 25.3754 19.5 25.0448 19.5 24.7V21.866C20.0452 21.6719 20.5404 21.3589 20.9496 20.9496C21.3589 20.5404 21.6719 20.0452 21.866 19.5H24.7C25.0448 19.5 25.3754 19.363 25.6192 19.1192C25.863 18.8754 26 18.5448 26 18.2C26 17.8552 25.863 17.5246 25.6192 17.2808C25.3754 17.037 25.0448 16.9 24.7 16.9H22.1V14.3H24.7ZM19.5 18.2C19.5 18.5448 19.363 18.8754 19.1192 19.1192C18.8754 19.363 18.5448 19.5 18.2 19.5H7.8C7.45522 19.5 7.12456 19.363 6.88076 19.1192C6.63696 18.8754 6.5 18.5448 6.5 18.2V7.8C6.5 7.45522 6.63696 7.12456 6.88076 6.88076C7.12456 6.63696 7.45522 6.5 7.8 6.5H18.2C18.5448 6.5 18.8754 6.63696 19.1192 6.88076C19.363 7.12456 19.5 7.45522 19.5 7.8V18.2Z" fill="#121212"/>
</svg>
