<svg width="27" height="23" viewBox="0 0 27 23" fill="none" xmlns="http://www.w3.org/2000/svg">
<path d="M6.75 11.5C6.75 10.139 7.88328 9.03571 9.28125 9.03571C10.6792 9.03571 11.8125 10.139 11.8125 11.5C11.8125 12.861 10.6792 13.9643 9.28125 13.9643C7.88328 13.9643 6.75 12.861 6.75 11.5Z" fill="#121212"/>
<path d="M19.4062 9.03571C18.0083 9.03571 16.875 10.139 16.875 11.5C16.875 12.861 18.0083 13.9643 19.4062 13.9643C20.8042 13.9643 21.9375 12.861 21.9375 11.5C21.9375 10.139 20.8042 9.03571 19.4062 9.03571Z" fill="#121212"/>
<path d="M0 0.821429C0 0.367766 0.37776 0 0.84375 0H2.53125C2.99724 0 3.375 0.367766 3.375 0.821429V4.92857H26.1562C26.6222 4.92857 27 5.29634 27 5.75V17.25C27 17.7037 26.6222 18.0714 26.1562 18.0714H3.375V22.1786C3.375 22.6322 2.99724 23 2.53125 23C2.06526 23 1.6875 22.6322 1.6875 22.1786V1.64286H0.84375C0.37776 1.64286 0 1.27509 0 0.821429ZM9.28125 7.39286C6.9513 7.39286 5.0625 9.23169 5.0625 11.5C5.0625 13.7683 6.9513 15.6071 9.28125 15.6071C11.6112 15.6071 13.5 13.7683 13.5 11.5C13.5 9.23169 11.6112 7.39286 9.28125 7.39286ZM15.1875 11.5C15.1875 13.7683 17.0763 15.6071 19.4062 15.6071C21.7362 15.6071 23.625 13.7683 23.625 11.5C23.625 9.23169 21.7362 7.39286 19.4062 7.39286C17.0763 7.39286 15.1875 9.23169 15.1875 11.5Z" fill="#121212"/>
<path d="M5.0625 18.8929H10.9688V20.5357C10.9688 20.9894 10.591 21.3571 10.125 21.3571H5.90625C5.44026 21.3571 5.0625 20.9894 5.0625 20.5357V18.8929Z" fill="#121212"/>
<path d="M11.8125 20.5357V18.8929H18.5625V20.5357C18.5625 20.9894 18.1847 21.3571 17.7188 21.3571H12.6562C12.1903 21.3571 11.8125 20.9894 11.8125 20.5357Z" fill="#121212"/>
</svg>
