<svg width="30" height="18" viewBox="0 0 30 18" fill="none" xmlns="http://www.w3.org/2000/svg">
<path id="Subtract" d="M0 4C0 1.79086 1.67893 0 3.75 0H26.25C28.3211 0 30 1.79086 30 4V14C30 16.2091 28.3211 18 26.25 18H3.75C1.67893 18 0 16.2091 0 14V4ZM24.375 4.5V5.5C24.375 5.77614 24.5849 6 24.8438 6H25.7812C26.0401 6 26.25 5.77614 26.25 5.5V4.5C26.25 4.22386 26.0401 4 25.7812 4H24.8438C24.5849 4 24.375 4.22386 24.375 4.5ZM4.21875 8C3.95987 8 3.75 8.22386 3.75 8.5V9.5C3.75 9.77614 3.95987 10 4.21875 10H5.15625C5.41513 10 5.625 9.77614 5.625 9.5V8.5C5.625 8.22386 5.41513 8 5.15625 8H4.21875ZM7.5 8.5V9.5C7.5 9.77614 7.70987 10 7.96875 10H8.90625C9.16513 10 9.375 9.77614 9.375 9.5V8.5C9.375 8.22386 9.16513 8 8.90625 8H7.96875C7.70987 8 7.5 8.22386 7.5 8.5ZM11.7188 8C11.4599 8 11.25 8.22386 11.25 8.5V9.5C11.25 9.77614 11.4599 10 11.7188 10H12.6562C12.9151 10 13.125 9.77614 13.125 9.5V8.5C13.125 8.22386 12.9151 8 12.6562 8H11.7188ZM15 8.5V9.5C15 9.77614 15.2099 10 15.4688 10H16.4062C16.6651 10 16.875 9.77614 16.875 9.5V8.5C16.875 8.22386 16.6651 8 16.4062 8H15.4688C15.2099 8 15 8.22386 15 8.5ZM24.8438 8C24.5849 8 24.375 8.22386 24.375 8.5V9.5C24.375 9.77614 24.5849 10 24.8438 10H25.7812C26.0401 10 26.25 9.77614 26.25 9.5V8.5C26.25 8.22386 26.0401 8 25.7812 8H24.8438ZM24.8438 12C24.5849 12 24.375 12.2239 24.375 12.5V13.5C24.375 13.7761 24.5849 14 24.8438 14H25.7812C26.0401 14 26.25 13.7761 26.25 13.5V12.5C26.25 12.2239 26.0401 12 25.7812 12H24.8438ZM19.2188 8C18.9599 8 18.75 8.22386 18.75 8.5V9.5C18.75 9.77614 18.9599 10 19.2188 10H22.0312C22.2901 10 22.5 9.77614 22.5 9.5V8.5C22.5 8.22386 22.2901 8 22.0312 8H19.2188ZM20.625 12.5V13.5C20.625 13.7761 20.8349 14 21.0938 14H22.0312C22.2901 14 22.5 13.7761 22.5 13.5V12.5C22.5 12.2239 22.2901 12 22.0312 12H21.0938C20.8349 12 20.625 12.2239 20.625 12.5ZM21.0938 4C20.8349 4 20.625 4.22386 20.625 4.5V5.5C20.625 5.77614 20.8349 6 21.0938 6H22.0312C22.2901 6 22.5 5.77614 22.5 5.5V4.5C22.5 4.22386 22.2901 4 22.0312 4H21.0938ZM16.875 4.5V5.5C16.875 5.77614 17.0849 6 17.3438 6H18.2812C18.5401 6 18.75 5.77614 18.75 5.5V4.5C18.75 4.22386 18.5401 4 18.2812 4H17.3438C17.0849 4 16.875 4.22386 16.875 4.5ZM13.5938 4C13.3349 4 13.125 4.22386 13.125 4.5V5.5C13.125 5.77614 13.3349 6 13.5938 6H14.5312C14.7901 6 15 5.77614 15 5.5V4.5C15 4.22386 14.7901 4 14.5312 4H13.5938ZM9.375 4.5V5.5C9.375 5.77614 9.58487 6 9.84375 6H10.7812C11.0401 6 11.25 5.77614 11.25 5.5V4.5C11.25 4.22386 11.0401 4 10.7812 4H9.84375C9.58487 4 9.375 4.22386 9.375 4.5ZM4.21875 4C3.95987 4 3.75 4.22386 3.75 4.5V5.5C3.75 5.77614 3.95987 6 4.21875 6H7.03125C7.29013 6 7.5 5.77614 7.5 5.5V4.5C7.5 4.22386 7.29013 4 7.03125 4H4.21875ZM3.75 12.5V13.5C3.75 13.7761 3.95987 14 4.21875 14H5.15625C5.41513 14 5.625 13.7761 5.625 13.5V12.5C5.625 12.2239 5.41513 12 5.15625 12H4.21875C3.95987 12 3.75 12.2239 3.75 12.5ZM7.96875 12C7.70987 12 7.5 12.2239 7.5 12.5V13.5C7.5 13.7761 7.70987 14 7.96875 14H18.2812C18.5401 14 18.75 13.7761 18.75 13.5V12.5C18.75 12.2239 18.5401 12 18.2812 12H7.96875Z" fill="#121212"/>
</svg>
