<svg width="17" height="23" viewBox="0 0 17 23" fill="none" xmlns="http://www.w3.org/2000/svg">
<path id="Subtract" d="M9.20833 0.0988917C8.44883 0.0228816 7.72383 0 7.08333 0C6.24373 0 5.51888 0.22624 4.91966 0.665788C4.32726 1.10033 3.90389 1.70914 3.60215 2.40174C3.05541 3.65668 2.86372 5.29133 2.83676 7.01102L9.20833 8.44775V0.0988917ZM2.42121 8.38988L1.95778 8.625C0.757925 9.23375 0 10.4781 0 11.8393V15.543C0 19.6334 3.14434 23 7.08333 23H9.91667C13.8557 23 17 19.6334 17 15.543V11.6773L4.25129 8.80255L4.25134 8.80625C4.25269 8.92537 4.2554 9.09885 4.26083 9.3141C4.27172 9.74498 4.2935 10.3413 4.33697 11.003C4.42548 12.3502 4.59942 13.8845 4.92198 14.8665C5.04569 15.243 4.84512 15.6501 4.47399 15.7756C4.10287 15.9011 3.70172 15.6976 3.57802 15.321C3.19225 14.1467 3.01202 12.4467 2.92344 11.0986C2.87837 10.4126 2.85588 9.79603 2.84463 9.35094C2.839 9.1282 2.83618 8.94792 2.83476 8.82277C2.83403 8.75821 2.83358 8.69365 2.83334 8.62908C2.83329 8.58103 2.83748 8.53298 2.84661 8.4858L2.42121 8.38988ZM17 10.2047V7.45703C17 5.83262 16.6146 4.51814 15.941 3.47166C15.2694 2.42814 14.3403 1.69618 13.3212 1.18599C12.4711 0.760409 11.5453 0.482811 10.625 0.304089V8.76719L17 10.2047Z" fill="#121212"/>
</svg>
