<svg width="30" height="23" viewBox="0 0 30 23" fill="none" xmlns="http://www.w3.org/2000/svg">
<path id="Vector" d="M11.25 18C11.25 19.2 11.0938 20.1 10.7812 20.7H9.375C8.85723 20.7 8.4375 21.1029 8.4375 21.6C8.4375 22.0971 8.85723 22.5 9.375 22.5H20.625C21.1428 22.5 21.5625 22.0971 21.5625 21.6C21.5625 21.1029 21.1428 20.7 20.625 20.7H19.2188C18.9063 20.1 18.75 19.2 18.75 18H26.25C30 18 30 14.4 30 14.4V3.6C30 0 26.25 0 26.25 0H3.75C0 0 0 3.6 0 3.6V14.4C0 18 3.75 18 3.75 18H11.25Z" fill="#121212"/>
</svg>
