<svg width="44" height="44" viewBox="0 0 44 44" fill="none" xmlns="http://www.w3.org/2000/svg">
<path fill-rule="evenodd" clip-rule="evenodd" d="M22 44C34.1503 44 44 34.1503 44 22C44 9.84974 34.1503 0 22 0C9.84974 0 0 9.84974 0 22C0 34.1503 9.84974 44 22 44ZM16.6406 10.0755C18.0273 10.0148 18.4704 10 22.001 10H21.9972C25.5289 10 25.9704 10.0148 27.357 10.0755C28.741 10.1365 29.6862 10.3471 30.515 10.6562C31.3708 10.9753 32.094 11.4023 32.8171 12.0977C33.5402 12.7924 33.9844 13.4898 34.3175 14.312C34.6371 15.1068 34.8565 16.0151 34.9215 17.3458C34.9838 18.6792 35 19.1052 35 22.5C35 25.8948 34.9838 26.3198 34.9215 27.6531C34.8565 28.9833 34.6371 29.8919 34.3175 30.687C33.9844 31.5089 33.5402 32.2062 32.8171 32.901C32.0948 33.5964 31.3706 34.0245 30.5158 34.3438C29.6887 34.6529 28.7429 34.8635 27.3589 34.9245C25.9722 34.9852 25.5305 35 21.9996 35C18.4693 35 18.0265 34.9852 16.6398 34.9245C15.2561 34.8635 14.3111 34.6529 13.484 34.3438C12.6295 34.0245 11.9042 33.5964 11.1819 32.901C10.459 32.2062 10.0149 31.5089 9.68254 30.6867C9.36133 29.8919 9.14222 28.9836 9.07857 27.6529C9.01574 26.3195 9.00003 25.8948 9.00003 22.5C9.00003 19.1052 9.01628 18.6789 9.07803 17.3456C9.14032 16.0154 9.3597 15.1068 9.682 14.3117C10.0151 13.4898 10.4593 12.7924 11.1824 12.0977C11.905 11.4026 12.6303 10.9755 13.4853 10.6562C14.3119 10.3471 15.2566 10.1365 16.6406 10.0755ZM21.5677 12.2525C21.3048 12.2524 21.0612 12.2523 20.8348 12.2526V12.2495C18.4119 12.2521 17.9471 12.2677 16.7478 12.3198C15.4803 12.3758 14.7921 12.5789 14.3339 12.7508C13.7272 12.9779 13.2939 13.2487 12.8389 13.6862C12.3839 14.1237 12.1016 14.5404 11.866 15.1237C11.6881 15.5643 11.4763 16.2258 11.4183 17.4445C11.356 18.7622 11.3436 19.156 11.3436 22.494C11.3436 25.832 11.356 26.2279 11.4183 27.5456C11.476 28.7643 11.6881 29.4258 11.866 29.8659C12.1022 30.4495 12.3839 30.8651 12.8389 31.3026C13.2939 31.7401 13.7272 32.0109 14.3339 32.2375C14.7924 32.4086 15.4803 32.6122 16.7478 32.6685C18.1183 32.7284 18.5297 32.7414 22.001 32.7414C25.472 32.7414 25.8837 32.7284 27.2541 32.6685C28.5216 32.6128 29.2101 32.4096 29.6678 32.2378C30.2747 32.0112 30.7067 31.7404 31.1617 31.3029C31.6167 30.8656 31.899 30.4503 32.1346 29.8669C32.3125 29.4268 32.5243 28.7654 32.5823 27.5466C32.6446 26.2289 32.6581 25.8331 32.6581 22.4971C32.6581 19.1612 32.6446 18.7654 32.5823 17.4477C32.5246 16.2289 32.3125 15.5674 32.1346 15.1273C31.8984 14.544 31.6167 14.1273 31.1617 13.6898C30.707 13.2523 30.2745 12.9815 29.6678 12.7549C29.2096 12.5839 28.5216 12.3802 27.2541 12.3245C25.8834 12.2646 25.472 12.2526 22.001 12.2526C21.851 12.2526 21.7066 12.2525 21.5677 12.2525ZM28.0736 14.581C28.3301 14.4161 28.6318 14.3281 28.9403 14.3281C29.8016 14.3281 30.5004 14.9995 30.5004 15.8276C30.5005 16.1243 30.4091 16.4144 30.2377 16.6611C30.0664 16.9078 29.8228 17.1002 29.5377 17.2138C29.2527 17.3274 28.939 17.3572 28.6363 17.2994C28.3337 17.2415 28.0557 17.0987 27.8374 16.889C27.6192 16.6792 27.4706 16.4119 27.4103 16.121C27.3501 15.83 27.381 15.5283 27.499 15.2542C27.6171 14.9801 27.817 14.7458 28.0736 14.581ZM15.3249 22.5C15.3249 18.9549 18.3141 16.0807 22.001 16.0807C25.6879 16.0807 28.6763 18.9549 28.6763 22.5C28.6763 26.0451 25.6879 28.918 22.001 28.918C18.3141 28.918 15.3249 26.0451 15.3249 22.5ZM26.3344 22.5C26.3344 20.1987 24.3941 18.3333 22.001 18.3333C19.6076 18.3333 17.6676 20.1987 17.6676 22.5C17.6676 24.801 19.6076 26.6667 22.001 26.6667C24.3941 26.6667 26.3344 24.801 26.3344 22.5Z" fill="url(#paint0_linear_81_30)"/>
<defs>
<linearGradient id="paint0_linear_81_30" x1="5.50003" y1="6" x2="36" y2="44" gradientUnits="userSpaceOnUse">
<stop stop-color="#BF34B2"/>
<stop offset="1" stop-color="#FFB64F"/>
</linearGradient>
</defs>
</svg>
