<svg width="44" height="44" viewBox="0 0 44 44" fill="none" xmlns="http://www.w3.org/2000/svg">
<path d="M44 22C44 34.1503 34.1503 44 22 44C9.84974 44 0 34.1503 0 22C0 9.84974 9.84974 0 22 0C34.1503 0 44 9.84974 44 22Z" fill="url(#paint0_linear_2010_50)"/>
<path d="M26.4583 26.6552V16.7414C26.4583 16.7414 27.574 18.6041 31.6074 18.7186C31.8223 18.7247 32 18.5476 32 18.3322V15.5301C32 15.3214 31.8339 15.1565 31.6259 15.1447C28.4975 14.9671 27.0118 12.5639 26.8661 10.3595C26.8526 10.1549 26.6746 10 26.4699 10H23.2807C23.0682 10 22.8958 10.1726 22.8958 10.3856V26.1452C22.8958 27.8571 21.59 29.3464 19.8831 29.4274C17.9319 29.5199 16.3456 27.8424 16.5868 25.8598C16.7572 24.4592 17.8794 23.3125 19.2743 23.118C19.5513 23.0794 19.8227 23.0767 20.0844 23.1059C20.3162 23.1319 20.5208 22.959 20.5208 22.7253L20.5208 19.9165C20.5208 19.7167 20.3691 19.5444 20.17 19.5315C19.7697 19.5055 19.3598 19.5147 18.9434 19.5619C15.8664 19.9111 13.3835 22.4056 13.0426 25.489C12.593 29.5568 15.7597 33 19.7292 33C23.4456 33 26.4583 29.9818 26.4583 26.2586" fill="#121212"/>
<defs>
<linearGradient id="paint0_linear_2010_50" x1="31.5" y1="3.5" x2="14" y2="38" gradientUnits="userSpaceOnUse">
<stop offset="0.0470687" stop-color="#74F7F2"/>
<stop offset="1" stop-color="#FE2C55"/>
</linearGradient>
</defs>
</svg>
