<svg width="44" height="44" viewBox="0 0 44 44" fill="none" xmlns="http://www.w3.org/2000/svg">
<path d="M44 22C44 34.1503 34.1503 44 22 44C9.84974 44 0 34.1503 0 22C0 9.84974 9.84974 0 22 0C34.1503 0 44 9.84974 44 22Z" fill="#A96FFF"/>
<path d="M32.6905 11H16.6676C16.4393 11 16.2202 11.0901 16.0584 11.2519L12.2529 15.0564C12.0911 15.2182 12 15.4373 12 15.6666V30.8244C12 31.3005 12.386 31.6854 12.8621 31.6854H17.6044V35.575C17.6044 35.9528 18.0611 36.1422 18.3283 35.875L22.5178 31.6854H25.4367C25.665 31.6854 25.8841 31.5953 26.0459 31.4336L33.2997 24.1808C33.4615 24.019 33.5526 23.7999 33.5526 23.5716V11.8611C33.5526 11.385 33.1666 11 32.6905 11ZM32.8523 23.0371C32.8523 23.4252 32.7008 23.7907 32.4264 24.0651L29.8074 26.684C29.5279 26.9605 29.1645 27.1099 28.7795 27.1099H25.3558L22.6345 29.8313C22.3939 30.0719 22.0745 30.205 21.7356 30.205C21.0322 30.205 20.4599 29.6337 20.4599 28.9303V27.1099H17.6044C16.8017 27.1099 16.1496 26.4578 16.1496 25.6551V13.1551C16.1496 12.3525 16.8017 11.7003 17.6044 11.7003H31.3975C32.2001 11.7003 32.8523 12.3525 32.8523 13.1551V23.0371Z" fill="#121212"/>
<path d="M31.3975 12.7241H17.6044C17.3659 12.7241 17.1734 12.9166 17.1734 13.1551V25.6551C17.1734 25.8926 17.3659 26.0861 17.6044 26.0861H21.4837V28.9303C21.4837 29.1535 21.753 29.2651 21.9107 29.1074L24.932 26.0861H28.7795C28.8932 26.0861 29.0027 26.04 29.0836 25.9602L31.7026 23.3412C31.7834 23.2603 31.8285 23.1508 31.8285 23.0371V13.1551C31.8285 12.9166 31.635 12.7241 31.3975 12.7241ZM24.0699 20.8113C24.0699 20.8676 24.0238 20.9137 23.9675 20.9137H22.4482C22.3908 20.9137 22.3458 20.8676 22.3458 20.8113V15.8437C22.3458 15.7864 22.3908 15.7413 22.4482 15.7413H23.9675C24.0238 15.7413 24.0699 15.7864 24.0699 15.8437V20.8113ZM29.2423 20.8113C29.2423 20.8676 29.1962 20.9137 29.1399 20.9137H27.6205C27.5642 20.9137 27.5182 20.8676 27.5182 20.8113V15.8437C27.5182 15.7864 27.5642 15.7413 27.6205 15.7413H29.1399C29.1962 15.7413 29.2423 15.7864 29.2423 15.8437V20.8113Z" fill="#121212"/>
</svg>
