<svg width="44" height="44" viewBox="0 0 44 44" fill="none" xmlns="http://www.w3.org/2000/svg">
<path id="Subtract" fill-rule="evenodd" clip-rule="evenodd" d="M22 44C34.1503 44 44 34.1503 44 22C44 9.84974 34.1503 0 22 0C9.84974 0 0 9.84974 0 22C0 34.1503 9.84974 44 22 44ZM9 14C9.203 23.994 14.0749 30 22.6164 30H23.1006V24.2823C26.2393 24.6026 28.6126 26.957 29.5651 30H34C32.782 25.4514 29.5807 22.9369 27.582 21.976C29.5807 20.7908 32.3915 17.9079 33.0629 14H29.0341C28.1596 17.1712 25.5678 20.054 23.1006 20.3263V14H19.0717V25.0831C16.5733 24.4424 13.4191 21.3353 13.2786 14H9Z" fill="#0077FF"/>
</svg>
