<svg width="235" height="55" viewBox="0 0 235 55" fill="none" xmlns="http://www.w3.org/2000/svg">
<g id="Group">
<g id="Group_2">
<path id="Vector" d="M100.36 4.94603H77.1181C76.3015 4.94603 75.9072 5.20859 75.9072 5.70903V7.34114C75.9072 7.84159 76.3015 8.10412 77.1181 8.10412H94.7004C98.9119 8.10412 101.018 9.78876 101.018 13.1322V16.001C101.018 19.3959 98.9119 21.1073 94.7004 21.1073H71.4588V16.211H94.7004C95.4902 16.211 95.8856 15.9742 95.8856 15.4748V13.7634C95.8856 13.263 95.4902 13.0004 94.7004 13.0004H77.1181C72.8798 13.0004 70.774 11.5001 70.774 8.49956V5.18285C70.774 1.76115 72.8798 0.0497437 77.1181 0.0497437H100.36V4.94603Z" fill="white"/>
<path id="Vector_2" d="M133.123 4.94582H121.04V21.1071H115.908V4.94582H103.615V0.04953H133.123V4.94582Z" fill="white"/>
<path id="Vector_3" d="M167.121 7.07731C167.121 10.6308 165.279 12.4204 161.621 12.4204H159.356L168.016 21.1071H161.068L152.802 12.6841H140.905V21.1071H135.772V0.04953H161.041C165.095 0.04953 167.121 1.76094 167.121 5.18264V7.07731ZM140.905 4.94582V8.28823H161.146C161.831 8.28823 162.172 7.9989 162.172 7.44593V5.76132C162.172 5.20837 161.778 4.94582 160.988 4.94582H140.905Z" fill="white"/>
<path id="Vector_4" d="M174.536 21.1071H169.403V0.04953H174.536V21.1071Z" fill="white"/>
<path id="Vector_5" d="M196.202 9.81531L207.495 21.1071H200.388L192.098 12.5791H182.305V21.1071H177.172V0.04953H182.305V7.81458H191.755L199.571 0.04953H206.706L196.202 9.81531Z" fill="white"/>
<path id="Vector_6" d="M234.922 4.89631H213.759C212.969 4.89631 212.574 5.23816 212.574 5.92294V8.0544H234.763V12.9507H212.574V15.109C212.574 15.8194 212.969 16.1613 213.759 16.1613H235V21.0576H213.759C209.521 21.0576 207.415 19.3462 207.415 15.8987V5.13314C207.415 1.71143 209.521 3.05176e-05 213.759 3.05176e-05H234.922V4.89631Z" fill="white"/>
<g id="Group_3">
<path id="Vector_7" d="M104.423 44.7032H98.5005L96.1321 40.571H79.0493L76.7324 44.7032H70.7838L81.813 25.4352C82.4442 24.2511 83.024 23.6456 84.8918 23.6456H90.2092C91.657 23.6456 92.7361 24.2243 93.4209 25.4095L104.423 44.7032ZM86.5507 28.5419C85.9977 28.5419 85.5241 28.8837 85.1554 29.5417L81.5494 35.9383H93.6052L89.9456 29.5149C89.5513 28.8044 89.0776 28.5419 88.5771 28.5419H86.5507Z" fill="#00E853"/>
<path id="Vector_8" d="M137.107 30.6734C137.107 34.2269 135.265 36.0165 131.606 36.0165H129.342L138.002 44.7032H131.053L122.788 36.2801H110.891V44.7032H105.758V23.6456H131.027C135.081 23.6456 137.107 25.357 137.107 28.7787V30.6734ZM110.891 28.5419V31.8843H131.132C131.816 31.8843 132.158 31.595 132.158 31.042V29.3574C132.158 28.8044 131.764 28.5419 130.974 28.5419H110.891Z" fill="#00E853"/>
<path id="Vector_9" d="M166.895 28.5419H145.733C144.943 28.5419 144.547 28.8837 144.547 29.5685V31.7H166.737V36.5963H144.547V38.7545C144.547 39.465 144.943 39.8069 145.733 39.8069H166.973V44.7032H145.733C141.494 44.7032 139.389 42.9918 139.389 39.5443V28.7787C139.389 25.357 141.494 23.6456 145.733 23.6456H166.895V28.5419Z" fill="#00E853"/>
<path id="Vector_10" d="M200.174 44.7032H194.884C191.961 44.7032 190.145 43.8084 188.381 41.7283L177.178 29.5417C176.415 28.6994 176.074 28.5419 175.019 28.5419H174.441V44.7032H169.438V23.6456H174.704C177.52 23.6456 179.231 24.5147 180.995 26.4886L192.357 38.7545C193.12 39.6493 193.515 39.8069 194.567 39.8069H195.146V23.6456H200.174V44.7032Z" fill="#00E853"/>
<path id="Vector_11" d="M234.784 44.7032H228.862L226.493 40.571H209.41L207.095 44.7032H201.145L212.174 25.4352C212.807 24.2511 213.385 23.6456 215.254 23.6456H220.572C222.018 23.6456 223.099 24.2243 223.782 25.4095L234.784 44.7032ZM216.911 28.5419C216.36 28.5419 215.886 28.8837 215.518 29.5417L211.911 35.9383H223.967L220.308 29.5149C219.914 28.8044 219.438 28.5419 218.938 28.5419H216.911Z" fill="#00E853"/>
</g>
<g id="Group_4">
<path id="Vector_12" d="M78.5091 54.7987H77.8799V50.3819H77.7037C77.2256 50.3819 76.8732 50.5833 76.5775 50.9041L73.7147 54.0814C73.2806 54.566 72.8402 54.7987 72.1229 54.7987H71.3049V49.7655H71.9404V54.1823H72.1229C72.6074 54.1823 72.966 53.9933 73.268 53.6473L76.1559 50.4511C76.5775 49.9793 77.0053 49.7655 77.7037 49.7655H78.5091V54.7987Z" fill="white"/>
<path id="Vector_13" d="M86.8138 50.3819H81.3273C80.7484 50.3819 80.4401 50.6274 80.4401 51.0991V54.7987H79.7921V51.005C79.7921 50.1804 80.3017 49.7655 81.3273 49.7655H86.8138V50.3819Z" fill="white"/>
<path id="Vector_14" d="M94.8165 51.5332C94.8165 52.3638 94.3068 52.7791 93.2876 52.7791H88.6127V54.7987H87.9647V49.7655H93.2876C94.3068 49.7655 94.8165 50.1804 94.8165 51.011V51.5332ZM88.6127 50.3819V52.1624H93.2876C93.9356 52.1624 94.1684 51.9674 94.1684 51.4327V51.156C94.1684 50.5957 93.9356 50.3819 93.2876 50.3819H88.6127Z" fill="white"/>
<path id="Vector_15" d="M103.706 53.188C103.706 54.2641 103.071 54.7987 101.8 54.7987H97.9115C96.6343 54.7987 95.9988 54.2641 95.9988 53.188V51.3887C95.9988 50.3066 96.6343 49.7655 97.9115 49.7655H101.8C103.071 49.7655 103.706 50.3066 103.706 51.3887V53.188ZM98.1884 50.3819C97.1817 50.3819 96.6469 50.6586 96.6469 51.3887V52.8797C96.6469 53.7042 96.8797 54.1824 97.9115 54.1824H101.523C102.524 54.1824 103.058 53.9117 103.058 53.188V51.6906C103.058 50.8601 102.825 50.3819 101.8 50.3819H98.1884Z" fill="white"/>
<path id="Vector_16" d="M112.382 51.4452C112.382 51.7912 112.193 52.0935 111.936 52.2129C112.231 52.2885 112.439 52.5589 112.439 52.9049V53.5529C112.439 54.3834 111.929 54.7987 110.916 54.7987H104.996V49.7655H110.916C111.891 49.7655 112.382 50.1804 112.382 51.011V51.4452ZM105.644 50.3819V51.9549H111.369C111.621 51.9549 111.766 51.7158 111.766 51.4892V51.1809C111.766 50.6462 111.539 50.3819 110.916 50.3819H105.644ZM105.644 52.5148V54.1824H110.614C111.344 54.1824 111.797 54.0691 111.797 53.4712V52.9301C111.797 52.7098 111.652 52.5148 111.376 52.5148H105.644Z" fill="white"/>
<path id="Vector_17" d="M121.436 53.188C121.436 54.2641 120.8 54.7987 119.529 54.7987H115.641C114.364 54.7987 113.728 54.2641 113.728 53.188V51.3887C113.728 50.3066 114.364 49.7655 115.641 49.7655H119.529C120.8 49.7655 121.436 50.3066 121.436 51.3887V53.188ZM115.918 50.3819C114.911 50.3819 114.376 50.6586 114.376 51.3887V52.8797C114.376 53.7042 114.609 54.1824 115.641 54.1824H119.252C120.253 54.1824 120.788 53.9117 120.788 53.188V51.6906C120.788 50.8601 120.555 50.3819 119.529 50.3819H115.918Z" fill="white"/>
<path id="Vector_18" d="M129.64 50.3819H124.26C123.681 50.3819 123.373 50.6274 123.373 51.1055V51.9421H129.627V52.5589H123.373V53.4587C123.373 53.9433 123.669 54.1824 124.26 54.1824H129.659V54.7987H124.26C123.235 54.7987 122.725 54.3834 122.725 53.5529V51.011C122.725 50.1804 123.235 49.7655 124.26 49.7655H129.64V50.3819Z" fill="white"/>
<path id="Vector_19" d="M141.883 54.7987H141.241V50.3883H135.144V54.7987H134.496V49.7655H141.883V54.7987Z" fill="white"/>
<path id="Vector_20" d="M150.024 51.5332C150.024 52.3638 149.514 52.7791 148.495 52.7791H143.82V54.7987H143.172V49.7655H148.495C149.514 49.7655 150.024 50.1804 150.024 51.011V51.5332ZM143.82 50.3819V52.1624H148.495C149.143 52.1624 149.376 51.9674 149.376 51.4327V51.156C149.376 50.5957 149.143 50.3819 148.495 50.3819H143.82Z" fill="white"/>
<path id="Vector_21" d="M158.914 53.188C158.914 54.2641 158.278 54.7987 157.007 54.7987H153.119C151.842 54.7987 151.206 54.2641 151.206 53.188V51.3887C151.206 50.3066 151.842 49.7655 153.119 49.7655H157.007C158.278 49.7655 158.914 50.3066 158.914 51.3887V53.188ZM153.396 50.3819C152.389 50.3819 151.854 50.6586 151.854 51.3887V52.8797C151.854 53.7042 152.087 54.1824 153.119 54.1824H156.73C157.731 54.1824 158.266 53.9117 158.266 53.188V51.6906C158.266 50.8601 158.033 50.3819 157.007 50.3819H153.396Z" fill="white"/>
<path id="Vector_22" d="M167.464 50.3819H161.738C161.159 50.3819 160.851 50.6274 160.851 51.1055V53.4587C160.851 53.9433 161.147 54.1824 161.738 54.1824H167.483V54.7987H161.738C160.713 54.7987 160.203 54.3834 160.203 53.5529V51.011C160.203 50.1804 160.713 49.7655 161.738 49.7655H167.464V50.3819Z" fill="white"/>
<path id="Vector_23" d="M175.825 50.3819H172.654V54.7987H172.012V50.3819H168.772V49.7655H175.825V50.3819Z" fill="white"/>
<path id="Vector_24" d="M183.966 51.5332C183.966 52.3638 183.457 52.7791 182.437 52.7791H177.762V54.7987H177.114V49.7655H182.437C183.457 49.7655 183.966 50.1804 183.966 51.011V51.5332ZM177.762 50.3819V52.1624H182.437C183.085 52.1624 183.318 51.9674 183.318 51.4327V51.156C183.318 50.5957 183.085 50.3819 182.437 50.3819H177.762Z" fill="white"/>
<path id="Vector_25" d="M191.711 54.7987H190.962L190.157 53.534H185.193L184.394 54.7987H183.645L186.527 50.1996C186.709 49.8973 186.847 49.7655 187.351 49.7655H187.986C188.433 49.7655 188.647 49.8973 188.829 50.1996L191.711 54.7987ZM188.345 50.6398C188.213 50.4387 188.144 50.3819 187.791 50.3819H187.552C187.187 50.3819 187.131 50.4387 186.992 50.6398L185.514 52.9489H189.83L188.345 50.6398Z" fill="white"/>
<path id="Vector_26" d="M200.041 54.7987H199.393V52.4708H193.315V54.7987H192.667V49.7655H193.315V51.848H199.393V49.7655H200.041V54.7987Z" fill="white"/>
<path id="Vector_27" d="M208.585 50.3819H202.859C202.28 50.3819 201.972 50.6274 201.972 51.1055V53.4587C201.972 53.9433 202.268 54.1824 202.859 54.1824H208.604V54.7987H202.859C201.834 54.7987 201.324 54.3834 201.324 53.5529V51.011C201.324 50.1804 201.834 49.7655 202.859 49.7655H208.585V50.3819Z" fill="white"/>
<path id="Vector_28" d="M216.946 50.3819H213.775V54.7987H213.133V50.3819H209.893V49.7655H216.946V50.3819Z" fill="white"/>
<path id="Vector_29" d="M225.622 51.4452C225.622 51.7912 225.433 52.0935 225.175 52.2129C225.471 52.2885 225.679 52.5589 225.679 52.9049V53.5529C225.679 54.3834 225.169 54.7987 224.156 54.7987H218.235V49.7655H224.156C225.131 49.7655 225.622 50.1804 225.622 51.011V51.4452ZM218.883 50.3819V51.9549H224.609C224.861 51.9549 225.005 51.7158 225.005 51.4892V51.1809C225.005 50.6462 224.779 50.3819 224.156 50.3819H218.883ZM218.883 52.5148V54.1824H223.854C224.584 54.1824 225.037 54.0691 225.037 53.4712V52.9301C225.037 52.7098 224.892 52.5148 224.615 52.5148H218.883Z" fill="white"/>
<path id="Vector_30" d="M234.675 53.188C234.675 54.2641 234.04 54.7987 232.769 54.7987H228.881C227.603 54.7987 226.968 54.2641 226.968 53.188V51.3887C226.968 50.3066 227.603 49.7655 228.881 49.7655H232.769C234.04 49.7655 234.675 50.3066 234.675 51.3887V53.188ZM229.158 50.3819C228.151 50.3819 227.616 50.6586 227.616 51.3887V52.8797C227.616 53.7042 227.849 54.1824 228.881 54.1824H232.492C233.493 54.1824 234.027 53.9117 234.027 53.188V51.6906C234.027 50.8601 233.795 50.3819 232.769 50.3819H229.158Z" fill="white"/>
</g>
</g>
<g id="Group_5">
<path id="Vector_31" d="M27.3994 31.7782C29.8178 31.7782 31.7783 29.8177 31.7783 27.3993C31.7783 24.9809 29.8178 23.0204 27.3994 23.0204C24.9811 23.0204 23.0206 24.9809 23.0206 27.3993C23.0206 29.8177 24.9811 31.7782 27.3994 31.7782Z" fill="white"/>
<g id="Group_6">
<path id="Vector_32" d="M14.3264 20.3193L10.7063 15.2771L1.00116 24.9823C-0.333719 26.3172 -0.333719 28.4814 1.00116 29.8163L10.7063 39.5215L14.3264 34.4793C17.3628 30.2521 17.3628 24.5466 14.3264 20.3193Z" fill="white"/>
<path id="Vector_33" d="M34.4793 14.3262L39.5216 10.7063L29.8164 1.00115C28.4815 -0.333718 26.3173 -0.333718 24.9824 1.00115L15.2772 10.7063L20.3196 14.3262C24.5466 17.3628 30.2522 17.3628 34.4793 14.3262Z" fill="white"/>
<path id="Vector_34" d="M20.3196 40.4725L15.2772 44.0923L24.9824 53.7975C26.3173 55.1324 28.4815 55.1324 29.8164 53.7975L39.5216 44.0923L34.4793 40.4725C30.2522 37.4359 24.5466 37.4359 20.3196 40.4725Z" fill="white"/>
<path id="Vector_35" d="M53.7977 24.9823L44.0926 15.2771L40.4724 20.3193C37.436 24.5466 37.436 30.2521 40.4724 34.4793L44.0926 39.5215L53.7977 29.8163C55.1326 28.4814 55.1326 26.3172 53.7977 24.9823Z" fill="white"/>
</g>
<g id="Group_7">
<path id="Vector_36" d="M18.3171 22.4806L15.8021 18.9776L14.381 20.3987C17.3427 24.5915 17.3427 30.2072 14.381 34.4L15.8021 35.8211L18.3171 32.318C20.4266 29.3813 20.4266 25.4174 18.3171 22.4806Z" fill="#00E853"/>
<path id="Vector_37" d="M20.3989 14.3808L18.9777 15.8021L22.4808 18.317C25.4175 20.4265 29.3814 20.4265 32.318 18.317L35.8211 15.8021L34.3999 14.3809C30.2072 17.3427 24.5915 17.3427 20.3989 14.3808Z" fill="#00E853"/>
<path id="Vector_38" d="M34.3999 40.4178L35.8211 38.9965L32.318 36.4817C29.3814 34.3722 25.4175 34.3722 22.4808 36.4817L18.9777 38.9965L20.3989 40.4179C24.5915 37.4561 30.2071 37.4561 34.3999 40.4178Z" fill="#00E853"/>
<path id="Vector_39" d="M40.4178 20.3987L38.9968 18.9776L36.4818 22.4806C34.3723 25.4174 34.3723 29.3813 36.4818 32.318L38.9968 35.8211L40.4178 34.4C37.4562 30.2072 37.4562 24.5915 40.4178 20.3987Z" fill="#00E853"/>
</g>
</g>
</g>
</svg>
