<svg width="61" height="77" viewBox="0 0 61 77" fill="none" xmlns="http://www.w3.org/2000/svg">
<path d="M61 10.7861V48.453C61 51.0508 59.9795 53.6021 58.124 55.4112L37.8525 75.6827C36.3217 77.2135 33.8167 77.2135 32.2859 75.6827L2.31939 45.7162C0.834981 44.2318 0 42.2371 0 40.1496V28.6918C0 26.0941 1.02053 23.5892 2.87604 21.7337L20.7818 3.82795C22.6373 1.97244 25.1422 0.951904 27.7399 0.951904H51.1194C56.5932 0.951904 61 5.35875 61 10.7861Z" fill="#00E853"/>
<path d="M32.0546 37.3688C33.7682 36.4996 34.4526 34.4058 33.5833 32.6923C32.7141 30.9787 30.6203 30.2943 28.9067 31.1635C27.1932 32.0328 26.5088 34.1266 27.378 35.8401C28.2473 37.5537 30.3411 38.2381 32.0546 37.3688Z" fill="white"/>
<path d="M20.0395 28.599L17.1635 24.5633L9.37033 32.3101C8.30341 33.377 8.30341 35.0933 9.37033 36.1603L17.1171 43.907L19.9931 39.8713C22.4517 36.5314 22.4517 31.9853 20.0395 28.599Z" fill="white"/>
<path d="M36.1361 23.7747L40.1719 20.8986L32.4251 13.1519C31.3582 12.085 29.6418 12.085 28.5749 13.1519L20.8281 20.8986L24.8639 23.7747C28.2038 26.2332 32.7962 26.2332 36.1361 23.7747Z" fill="white"/>
<path d="M24.8175 44.6956L20.7818 47.5716L28.5285 55.3184C29.5954 56.3853 31.3118 56.3853 32.3787 55.3184L40.1255 47.5716L36.0897 44.6956C32.7962 42.2834 28.2038 42.2834 24.8175 44.6956Z" fill="white"/>
<path d="M51.5833 32.3101L43.8365 24.5633L40.9605 28.599C38.5483 31.9853 38.5483 36.5314 40.9605 39.9177L43.8365 43.9534L51.5833 36.2066C52.6502 35.0933 52.6502 33.377 51.5833 32.3101Z" fill="white"/>
<path d="M23.797 30.3154L21.8023 27.5321L20.689 28.6454C23.0547 31.9853 23.0547 36.485 20.689 39.8249L21.8023 40.9382L23.797 38.1549C25.4669 35.8355 25.4669 32.6812 23.797 30.3154Z" fill="white"/>
<path d="M24.9103 24.4241L23.7506 25.5838L26.5338 27.5784C28.8996 29.2484 32.054 29.2484 34.4198 27.5784L37.2031 25.5838L36.0897 24.4241C32.7498 26.7899 28.2502 26.7899 24.9103 24.4241Z" fill="white"/>
<path d="M36.0897 44.0925L37.2031 42.9328L34.4198 40.9381C32.054 39.2682 28.8996 39.2682 26.5338 40.9381L23.7506 42.9328L24.9103 44.0925C28.2502 41.7267 32.7498 41.7267 36.0897 44.0925Z" fill="white"/>
<path d="M40.3574 28.6454L39.2441 27.5321L37.2494 30.3154C35.5795 32.6812 35.5795 35.8355 37.2494 38.2013L39.2441 40.9846L40.3574 39.8713C37.9916 36.485 37.9916 31.9853 40.3574 28.6454Z" fill="white"/>
</svg>
