<svg width="61" height="76" viewBox="0 0 61 76" fill="none" xmlns="http://www.w3.org/2000/svg">
<path d="M0 9.83422V47.5011C0 50.0989 1.02053 52.6502 2.87605 54.4593L23.1475 74.7308C24.6783 76.2616 27.1833 76.2616 28.7141 74.7308L58.6806 44.7643C60.165 43.2799 61 41.2852 61 39.1977V27.7399C61 25.1422 59.9795 22.6373 58.124 20.7817L40.2182 2.87605C38.3627 1.02053 35.8578 0 33.2601 0H9.88061C4.40685 0 0 4.40684 0 9.83422Z" fill="#9F19FE"/>
<path d="M32.0546 36.4169C33.7681 35.5477 34.4525 33.4539 33.5833 31.7404C32.714 30.0268 30.6202 29.3424 28.9067 30.2116C27.1932 31.0809 26.5087 33.1747 27.378 34.8882C28.2472 36.6018 30.341 37.2862 32.0546 36.4169Z" fill="white"/>
<path d="M20.0395 27.6471L17.1635 23.6114L9.37032 31.3582C8.3034 32.4251 8.3034 34.1414 9.37032 35.2083L17.1171 42.9551L19.9931 38.9194C22.4517 35.5795 22.4517 31.0334 20.0395 27.6471Z" fill="white"/>
<path d="M36.1361 22.8228L40.1719 19.9467L32.4251 12.2C31.3582 11.1331 29.6418 11.1331 28.5749 12.2L20.8281 19.9467L24.8639 22.8228C28.2038 25.2813 32.7962 25.2813 36.1361 22.8228Z" fill="white"/>
<path d="M24.8175 43.7437L20.7817 46.6197L28.5285 54.3665C29.5954 55.4334 31.3118 55.4334 32.3787 54.3665L40.1255 46.6197L36.0897 43.7437C32.7962 41.3315 28.2038 41.3315 24.8175 43.7437Z" fill="white"/>
<path d="M51.5832 31.3582L43.8365 23.6114L40.9604 27.6471C38.5483 31.0334 38.5483 35.5794 40.9604 38.9658L43.8365 43.0015L51.5832 35.2547C52.6502 34.1414 52.6502 32.4251 51.5832 31.3582Z" fill="white"/>
<path d="M23.797 29.3635L21.8023 26.5802L20.689 27.6935C23.0547 31.0334 23.0547 35.5331 20.689 38.873L21.8023 39.9863L23.797 37.203C25.4669 34.8836 25.4669 31.7292 23.797 29.3635Z" fill="white"/>
<path d="M24.9102 23.4722L23.7505 24.6319L26.5338 26.6265C28.8996 28.2965 32.054 28.2965 34.4198 26.6265L37.203 24.6319L36.0897 23.4722C32.7498 25.8379 28.2502 25.8379 24.9102 23.4722Z" fill="white"/>
<path d="M36.0897 43.1406L37.203 41.9809L34.4198 39.9862C32.054 38.3163 28.8996 38.3163 26.5338 39.9862L23.7505 41.9809L24.9102 43.1406C28.2502 40.7748 32.7498 40.7748 36.0897 43.1406Z" fill="white"/>
<path d="M40.3574 27.6935L39.2441 26.5802L37.2494 29.3635C35.5795 31.7292 35.5795 34.8836 37.2494 37.2494L39.2441 40.0327L40.3574 38.9194C37.9916 35.5331 37.9916 31.0334 40.3574 27.6935Z" fill="white"/>
</svg>
