<svg width="494" height="414" viewBox="0 0 494 414" fill="none" xmlns="http://www.w3.org/2000/svg">
<path fill-rule="evenodd" clip-rule="evenodd" d="M5.92861e-05 84.9265C5.99817e-05 76.97 3.16077 69.3393 8.78687 63.7132L63.7134 8.78671C69.3395 3.16064 76.9701 -6.69755e-05 84.9266 -6.62799e-05L474 -3.2266e-05C485.046 -3.13004e-05 494 8.95428 494 20L494 319.837C494 330.882 485.046 339.837 474 339.837L326.573 339.837C318.619 339.837 310.99 342.996 305.364 348.619L248.742 405.218C243.117 410.841 235.488 414 227.534 414L20 414C8.95435 414 3.13004e-05 405.046 3.2266e-05 394L5.92861e-05 84.9265Z" fill="black"/>
</svg>
