<svg width="0" height="0" class="hidden">
  <symbol fill="none" xmlns="http://www.w3.org/2000/svg" viewBox="0 0 24 39" id="ic_arr_hor">
    <path d="M23.6767 23.6767L0 0L8.36094 0L23.6767 15.3158L23.6767 23.6767Z" fill="currentColor"></path>
    <path d="M0 38.964L23.6767 15.2967L23.6767 23.6576L8.36094 38.964H0Z" fill="currentColor"></path>
  </symbol>
  <symbol fill="none" xmlns="http://www.w3.org/2000/svg" viewBox="0 0 26 16" id="ic_arr_ver">
    <path d="M3 3L13 13L23 3" stroke="currentColor" stroke-width="3" stroke-miterlimit="10" stroke-linecap="square"></path>
  </symbol>
  <symbol fill="none" xmlns="http://www.w3.org/2000/svg" viewBox="0 0 14 13" id="ic_arrow_hor">
    <path d="M14 7.48505L6.47778 0H9.13409L14 4.84186V7.48505Z" fill="currentColor"></path>
    <path d="M6.47778 12.318L14 4.83594V7.47912L9.13409 12.318H6.47778Z" fill="currentColor"></path>
    <path d="M14 5H0V7H14V5Z" fill="currentColor"></path>
  </symbol>
  <symbol fill="none" xmlns="http://www.w3.org/2000/svg" viewBox="0 0 44 44" id="ic_arrow_link">
    <path fill-rule="evenodd" clip-rule="evenodd" d="M22 44C34.1503 44 44 34.1503 44 22C44 9.84974 34.1503 0 22 0C9.84974 0 0 9.84974 0 22C0 34.1503 9.84974 44 22 44ZM27.7374 20.4141L18.3232 11H23.1529L31.9945 19.8416L32 19.8361V24.6657L32 24.6768L31.9945 24.6712L23.1529 33.5074H18.3233L28.0025 23.832H12V20.4141H27.7374Z" fill="currentColor"></path>
  </symbol>
  <symbol fill="none" xmlns="http://www.w3.org/2000/svg" viewBox="0 0 27 27" id="ic_close">
    <path d="M27 3.13969L23.8603 0L13.5 10.3603L3.13969 0L0 3.13969L10.3603 13.5L0 23.8603L3.13969 27L13.5 16.6397L23.8603 27L27 23.8603L16.6397 13.5L27 3.13969Z" fill="currentColor"></path>
  </symbol>
  <symbol fill="none" xmlns="http://www.w3.org/2000/svg" viewBox="0 0 27 27" id="ic_club_zone">
    <path d="M9.68473 26.2622L8.94697 27L0.546973 18.6L1.28473 17.8622C1.47949 17.6675 1.74517 17.5596 2.02333 17.5623L2.53781 17.5674C3.11704 17.5731 3.58199 17.1081 3.5763 16.5289L3.57144 16.0344C3.56871 15.7562 3.67658 15.4906 3.87134 15.2958L13.1973 5.96984C13.6839 5.48328 14.3476 5.21372 15.0425 5.22045L17.1236 5.24061L17.1915 5.17267L16.2395 4.22067C15.8803 3.86143 15.8746 3.28466 16.2268 2.93241L17.7597 1.39951C18.2391 0.92014 18.8931 0.654612 19.5777 0.661339L21.6822 0.682016L25.2032 0.716915C26.0929 0.725734 26.8212 1.45405 26.8301 2.34375L26.865 5.86481L26.8856 7.96925C26.8924 8.65391 26.6268 9.30786 26.1475 9.78723L24.6146 11.3201C24.2623 11.6724 23.6855 11.6667 23.3263 11.3075L22.3743 10.3555L22.3064 10.4234L22.3265 12.5044C22.3333 13.1994 22.0637 13.8631 21.5771 14.3497L12.2512 23.6756C12.0564 23.8704 11.7907 23.9783 11.5126 23.9755L11.0181 23.9707C10.4388 23.965 9.97389 24.4299 9.97958 25.0092L9.98463 25.5236C9.98737 25.8018 9.87949 26.0675 9.68473 26.2622Z" fill="currentColor"></path>
  </symbol>
  <symbol fill="none" xmlns="http://www.w3.org/2000/svg" viewBox="0 0 24 24" id="ic_email">
    <path d="M19.875 4.50024H4.125C3.08947 4.50024 2.25 5.33971 2.25 6.37524V17.6252C2.25 18.6608 3.08947 19.5002 4.125 19.5002H19.875C20.9105 19.5002 21.75 18.6608 21.75 17.6252V6.37524C21.75 5.33971 20.9105 4.50024 19.875 4.50024Z" stroke="currentColor" stroke-width="1.5" stroke-linecap="round" stroke-linejoin="round"></path>
    <path d="M5.25 7.50024L12 12.7502L18.75 7.50024" stroke="currentColor" stroke-width="1.5" stroke-linecap="round" stroke-linejoin="round"></path>
  </symbol>
  <symbol fill="none" xmlns="http://www.w3.org/2000/svg" viewBox="0 0 52 52" id="ic_instagram">
    <path fill-rule="evenodd" clip-rule="evenodd" d="M25.9574 51.9149C40.2934 51.9149 51.9149 40.2934 51.9149 25.9574C51.9149 11.6215 40.2934 0 25.9574 0C11.6215 0 0 11.6215 0 25.9574C0 40.2934 11.6215 51.9149 25.9574 51.9149ZM19.3979 11.7708C21.0341 11.6985 21.5569 11.6809 25.7226 11.6809H25.7181C29.8851 11.6809 30.406 11.6985 32.0421 11.7708C33.675 11.8434 34.7903 12.0945 35.7681 12.4628C36.7779 12.8429 37.6311 13.3517 38.4843 14.1802C39.3376 15.008 39.8616 15.839 40.2547 16.8185C40.6317 17.7655 40.8906 18.8478 40.9673 20.4333C41.0408 22.022 41.06 22.5296 41.06 26.5745C41.06 30.6193 41.0408 31.1257 40.9673 32.7144C40.8906 34.2993 40.6317 35.3819 40.2547 36.3292C39.8616 37.3084 39.3376 38.1394 38.4843 38.9672C37.6321 39.7957 36.7776 40.3058 35.7691 40.6862C34.7932 41.0545 33.6773 41.3055 32.0443 41.3781C30.4082 41.4504 29.887 41.4681 25.721 41.4681C21.5556 41.4681 21.0331 41.4504 19.397 41.3781C17.7644 41.3055 16.6495 41.0545 15.6735 40.6862C14.6653 40.3058 13.8096 39.7957 12.9573 38.9672C12.1044 38.1394 11.5804 37.3084 11.1883 36.3289C10.8093 35.3819 10.5507 34.2996 10.4756 32.7141C10.4015 31.1254 10.383 30.6193 10.383 26.5745C10.383 22.5296 10.4022 22.0217 10.475 20.433C10.5485 18.8481 10.8073 17.7655 11.1876 16.8182C11.5807 15.839 12.1047 15.008 12.958 14.1802C13.8105 13.352 14.6663 12.8432 15.6751 12.4628C16.6504 12.0945 17.765 11.8434 19.3979 11.7708ZM25.2114 14.3647C24.9012 14.3645 24.6138 14.3644 24.3466 14.3648V14.3611C21.4878 14.3642 20.9395 14.3828 19.5245 14.4449C18.029 14.5116 17.217 14.7536 16.6763 14.9584C15.9605 15.2289 15.4492 15.5516 14.9124 16.0729C14.3755 16.5942 14.0425 17.0906 13.7645 17.7857C13.5546 18.3107 13.3047 19.0988 13.2363 20.5509C13.1628 22.121 13.1481 22.5901 13.1481 26.5673C13.1481 30.5445 13.1628 31.0162 13.2363 32.5862C13.3044 34.0383 13.5546 34.8265 13.7645 35.3508C14.0432 36.0462 14.3755 36.5414 14.9124 37.0627C15.4492 37.584 15.9605 37.9067 16.6763 38.1766C17.2173 38.3805 18.029 38.6231 19.5245 38.6901C21.1414 38.7615 21.6268 38.777 25.7226 38.777C29.818 38.777 30.3037 38.7615 31.9207 38.6901C33.4162 38.6237 34.2285 38.3817 34.7686 38.1769C35.4847 37.907 35.9944 37.5843 36.5312 37.063C37.0681 36.542 37.401 36.0471 37.6791 35.3521C37.889 34.8277 38.1389 34.0396 38.2073 32.5875C38.2808 31.0174 38.2968 30.5458 38.2968 26.5711C38.2968 22.5963 38.2808 22.1247 38.2073 20.5547C38.1392 19.1025 37.889 18.3144 37.6791 17.79C37.4004 17.095 37.0681 16.5985 36.5312 16.0773C35.9947 15.556 35.4844 15.2333 34.7686 14.9633C34.2279 14.7595 33.4162 14.5168 31.9207 14.4504C30.3034 14.3791 29.818 14.3648 25.7226 14.3648C25.5456 14.3648 25.3753 14.3647 25.2114 14.3647ZM32.8876 17.139C33.1903 16.9426 33.5462 16.8378 33.9102 16.8378C34.9264 16.8378 35.7509 17.6377 35.7509 18.6244C35.751 18.9779 35.6431 19.3235 35.441 19.6175C35.2388 19.9115 34.9514 20.1406 34.6151 20.276C34.2787 20.4114 33.9086 20.4469 33.5515 20.378C33.1944 20.3091 32.8664 20.1389 32.6089 19.889C32.3514 19.6391 32.1761 19.3206 32.105 18.9739C32.0339 18.6272 32.0703 18.2678 32.2096 17.9412C32.3489 17.6146 32.5849 17.3354 32.8876 17.139ZM17.8456 26.5745C17.8456 22.3506 21.3725 18.926 25.7226 18.926C30.0727 18.926 33.5987 22.3506 33.5987 26.5745C33.5987 30.7984 30.0727 34.2214 25.7226 34.2214C21.3725 34.2214 17.8456 30.7984 17.8456 26.5745ZM30.8355 26.5745C30.8355 23.8325 28.5462 21.6099 25.7226 21.6099C22.8987 21.6099 20.6097 23.8325 20.6097 26.5745C20.6097 29.3161 22.8987 31.539 25.7226 31.539C28.5462 31.539 30.8355 29.3161 30.8355 26.5745Z" fill="currentColor"></path>
  </symbol>
  <symbol fill="none" xmlns="http://www.w3.org/2000/svg" viewBox="0 0 40 41" id="ic_menu_about">
    <path d="M20 40.5157C16.0444 40.5157 12.1776 39.3428 8.8886 37.1451C5.59962 34.9475 3.03617 31.8239 1.52242 28.1694C0.00866572 24.5149 -0.387401 20.4936 0.384303 16.6139C1.15601 12.7343 3.06082 9.17067 5.85787 6.37362C8.65492 3.57657 12.2186 1.67175 16.0982 0.90005C19.9778 0.128346 23.9992 0.524413 27.6537 2.03817C31.3082 3.55192 34.4318 6.11537 36.6294 9.40435C38.827 12.6933 40 16.5601 40 20.5158C39.9943 25.8183 37.8853 30.9021 34.1358 34.6516C30.3863 38.401 25.3026 40.51 20 40.5157ZM20 3.84909C16.7036 3.84909 13.4813 4.82657 10.7405 6.65793C7.99968 8.48928 5.86348 11.0923 4.60202 14.1377C3.34056 17.1831 3.0105 20.5342 3.65359 23.7673C4.29667 27.0003 5.88402 29.97 8.21489 32.3009C10.5458 34.6317 13.5155 36.2191 16.7485 36.8622C19.9815 37.5053 23.3326 37.1752 26.3781 35.9137C29.4235 34.6523 32.0265 32.5161 33.8578 29.7753C35.6892 27.0344 36.6667 23.8121 36.6667 20.5158C36.6618 16.097 34.9043 11.8606 31.7798 8.736C28.6552 5.61145 24.4188 3.85394 20 3.84909ZM29.4433 26.7591L27.2267 24.2691C25.1892 25.9845 22.6576 27.0051 20 27.1824C17.344 27.0053 14.8137 25.9859 12.7767 24.2724L10.5567 26.7591C13.2031 29.02 16.5237 30.3409 20 30.5157C23.4763 30.3409 26.7969 29.02 29.4433 26.7591ZM23.3333 17.1824V18.8491H30V17.1824C30 16.2984 29.6488 15.4505 29.0237 14.8254C28.3986 14.2003 27.5507 13.8491 26.6667 13.8491C25.7826 13.8491 24.9348 14.2003 24.3096 14.8254C23.6845 15.4505 23.3333 16.2984 23.3333 17.1824ZM16.6667 15.5158H10V18.8491H16.6667V15.5158Z" fill="currentColor"></path>
  </symbol>
  <symbol fill="none" xmlns="http://www.w3.org/2000/svg" viewBox="0 0 40 33" id="ic_menu_arena">
    <path d="M34 0.515747H6L5.5 1.01575C2 5.01575 0 10.1824 0 15.5157C0 24.6824 3.66667 32.1824 8.33333 32.1824C12 32.1824 13.8333 26.8491 14.6667 23.8491H25.3333C26.1667 26.8491 28 32.1824 31.6667 32.1824C36.3333 32.1824 40 24.6824 40 15.5157C40 10.1824 38 5.01575 34.5 1.01575L34 0.515747ZM31.6667 28.8491C30.6667 28.8491 29 25.3491 28.3333 21.8491L28 20.5157H12L11.6667 21.8491C11 25.3491 9.33333 28.8491 8.33333 28.8491C6.66667 28.8491 3.33333 23.6824 3.33333 15.5157C3.33333 11.3491 4.83333 7.18241 7.5 3.84908H32.6667C35.3333 7.18241 36.6667 11.3491 36.6667 15.5157C36.6667 23.6824 33.3333 28.8491 31.6667 28.8491Z" fill="currentColor"></path>
    <path d="M13.3338 7.18298H10.0004V10.5163H6.66711V13.8496H10.0004V17.183H13.3338V13.8496H16.6671V10.5163H13.3338V7.18298Z" fill="currentColor"></path>
    <path d="M30.8329 12.183C32.2136 12.183 33.3329 11.0637 33.3329 9.68298C33.3329 8.30227 32.2136 7.18298 30.8329 7.18298C29.4522 7.18298 28.3329 8.30227 28.3329 9.68298C28.3329 11.0637 29.4522 12.183 30.8329 12.183Z" fill="currentColor"></path>
    <path d="M25.8329 17.183C27.2136 17.183 28.3329 16.0637 28.3329 14.683C28.3329 13.3023 27.2136 12.183 25.8329 12.183C24.4522 12.183 23.3329 13.3023 23.3329 14.683C23.3329 16.0637 24.4522 17.183 25.8329 17.183Z" fill="currentColor"></path>
  </symbol>
  <symbol fill="none" xmlns="http://www.w3.org/2000/svg" viewBox="0 0 41 42" id="ic_menu_contacts">
    <path d="M24.2585 28.2947C19.2845 26.1887 15.3292 22.2241 13.2347 17.2453L19.043 11.4268L8.34889 0.724162L2.93181 6.13953C1.99223 7.08447 1.24937 8.20635 0.746185 9.44026C0.243003 10.6742 -0.0105031 11.9956 0.000333295 13.3281C0.000333295 25.71 15.8057 41.5154 28.1876 41.5154C29.52 41.527 30.8414 41.2739 32.0751 40.7706C33.3089 40.2674 34.4304 39.5241 35.3745 38.5839L40.7916 33.1668L30.089 22.4642L24.2585 28.2947ZM32.9572 36.1683C32.3299 36.7902 31.5851 37.2812 30.7663 37.6126C29.9475 37.944 29.0709 38.1092 28.1876 38.0987C17.5396 38.0987 3.41697 23.9761 3.41697 13.3281C3.40691 12.4446 3.57237 11.5679 3.90374 10.7489C4.23512 9.92985 4.72581 9.18474 5.34737 8.5568L8.34889 5.55528L14.2204 11.4268L9.20647 16.4407L9.625 17.4896C10.8571 20.7855 12.7833 23.778 15.273 26.2644C17.7627 28.7509 20.7577 30.6731 24.0552 31.901L25.0904 32.2956L30.089 27.2953L35.9605 33.1668L32.9572 36.1683ZM23.9168 3.93238V0.515747C28.446 0.520721 32.7883 2.32215 35.991 5.52479C39.1936 8.72742 40.995 13.0697 41 17.5989H37.5834C37.5793 13.9756 36.1381 10.5018 33.576 7.93971C31.0139 5.37762 27.5402 3.93645 23.9168 3.93238ZM23.9168 10.7657V7.34902C26.6344 7.35173 29.24 8.4325 31.1616 10.3541C33.0832 12.2758 34.164 14.8813 34.1667 17.5989H30.7501C30.7501 15.7866 30.0301 14.0486 28.7487 12.7671C27.4672 11.4856 25.7291 10.7657 23.9168 10.7657Z" fill="currentColor"></path>
  </symbol>
  <symbol fill="none" xmlns="http://www.w3.org/2000/svg" viewBox="0 0 40 40" id="ic_menu_home">
    <path d="M22.23 0.855792C21.6179 0.304852 20.8235 0 20 0C19.1765 0 18.3821 0.304852 17.77 0.855792L0 16.8491V34.1825C0 35.597 0.561903 36.9535 1.5621 37.9537C2.56229 38.9539 3.91885 39.5158 5.33333 39.5158H34.6667C36.0812 39.5158 37.4377 38.9539 38.4379 37.9537C39.4381 36.9535 40 35.597 40 34.1825V16.8491L22.23 0.855792ZM25 36.1775H15V27.8008C15 26.4747 15.5268 25.2029 16.4645 24.2653C17.4021 23.3276 18.6739 22.8008 20 22.8008C21.3261 22.8008 22.5979 23.3276 23.5355 24.2653C24.4732 25.2029 25 26.4747 25 27.8008V36.1775ZM36.6667 34.1775C36.6667 34.7079 36.456 35.2166 36.0809 35.5917C35.7058 35.9668 35.1971 36.1775 34.6667 36.1775H28.3333V27.8008C28.3333 25.5907 27.4554 23.471 25.8926 21.9082C24.3298 20.3454 22.2101 19.4675 20 19.4675C17.7899 19.4675 15.6702 20.3454 14.1074 21.9082C12.5446 23.471 11.6667 25.5907 11.6667 27.8008V36.1775H5.33333C4.8029 36.1775 4.29419 35.9668 3.91912 35.5917C3.54405 35.2166 3.33333 34.7079 3.33333 34.1775V18.3325L20 3.33246L36.6667 18.3325V34.1775Z" fill="currentColor"></path>
  </symbol>
  <symbol fill="none" xmlns="http://www.w3.org/2000/svg" viewBox="0 0 38 40" id="ic_menu_partners">
    <path d="M36.452 14.7916C35.9889 14.3588 35.4473 14.0239 34.8581 13.8059C34.2689 13.588 33.6436 13.4914 33.0179 13.5215C32.3923 13.5517 31.7786 13.7081 31.2119 13.9818C30.6452 14.2555 30.1366 14.6411 29.7152 15.1166L24.6207 20.8609C24.1779 20.1078 23.5531 19.4847 22.8068 19.0519C22.0605 18.6192 21.2179 18.3915 20.3607 18.391H4.75088C3.49087 18.391 2.28247 18.9046 1.3915 19.8188C0.500538 20.733 0 21.973 0 23.2659L0 34.6408C0 35.9337 0.500538 37.1737 1.3915 38.0879C2.28247 39.0021 3.49087 39.5157 4.75088 39.5157H21.2966L36.7956 21.6653C37.6277 20.702 38.058 19.4419 37.9937 18.1564C37.9294 16.8708 37.3758 15.6625 36.452 14.7916ZM34.4312 19.5041L19.8777 36.2658H4.75088C4.33088 36.2658 3.92808 36.0946 3.63109 35.7898C3.3341 35.4851 3.16726 35.0718 3.16726 34.6408V23.2659C3.16726 22.8349 3.3341 22.4216 3.63109 22.1169C3.92808 21.8121 4.33088 21.6409 4.75088 21.6409H20.3607C20.8193 21.6389 21.2615 21.8157 21.5979 22.1356C21.9343 22.4555 22.1396 22.8945 22.1724 23.3639C22.2052 23.8333 22.063 24.2979 21.7746 24.6638C21.4861 25.0296 21.073 25.2694 20.6188 25.3345L12.4441 26.5321L12.8939 29.7496L21.067 28.5504C21.9635 28.4154 22.8073 28.033 23.5083 27.4439C24.2093 26.8549 24.741 26.0814 25.0467 25.2061L32.0574 17.3022C32.1983 17.142 32.3689 17.0123 32.5592 16.9205C32.7496 16.8287 32.9558 16.7767 33.1659 16.7676C33.5896 16.7502 34.0031 16.9029 34.3188 17.1933C34.6288 17.4863 34.8143 17.8924 34.8353 18.3243C34.8563 18.7562 34.7112 19.1793 34.4312 19.5025V19.5041ZM16.5062 15.3847L17.4199 16.0494L18.3337 15.3847C19.051 14.8647 25.338 10.1718 25.338 5.71609C25.3769 4.38095 24.8989 3.08434 24.0086 2.10987C23.1183 1.1354 21.8881 0.562381 20.5872 0.516147C19.4264 0.500926 18.3002 0.921004 17.4199 1.69751C16.5396 0.921004 15.4134 0.500926 14.2527 0.516147C12.9517 0.562381 11.7215 1.1354 10.8312 2.10987C9.94088 3.08434 9.46289 4.38095 9.50177 5.71609C9.50177 10.1718 15.7888 14.8647 16.5062 15.3847ZM14.2527 3.76611C14.4642 3.75175 14.6764 3.78394 14.8749 3.86052C15.0733 3.9371 15.2536 4.05631 15.4035 4.21017C15.5535 4.36403 15.6696 4.54898 15.7443 4.75264C15.8189 4.95631 15.8503 5.17398 15.8363 5.3911H19.0035C18.9895 5.17398 19.0209 4.95631 19.0955 4.75264C19.1702 4.54898 19.2864 4.36403 19.4363 4.21017C19.5862 4.05631 19.7665 3.9371 19.965 3.86052C20.1634 3.78394 20.3756 3.75175 20.5872 3.76611C21.0474 3.8135 21.4712 4.04434 21.7674 4.409C22.0635 4.77365 22.2084 5.24299 22.1708 5.71609C22.1708 7.46133 19.637 10.214 17.4199 12.0227C15.4562 10.3977 12.669 7.59132 12.669 5.71609C12.6314 5.24299 12.7763 4.77365 13.0725 4.409C13.3686 4.04434 13.7924 3.8135 14.2527 3.76611Z" fill="currentColor"></path>
  </symbol>
  <symbol fill="none" xmlns="http://www.w3.org/2000/svg" viewBox="0 0 16 16" id="ic_path">
    <path d="M8 0.000610352C5.87899 0.00295182 3.84552 0.846559 2.34573 2.34634C0.845948 3.84613 0.00234147 5.8796 0 8.00061C0 12.4114 3.58885 16.0006 8 16.0006C10.121 15.9983 12.1545 15.1547 13.6543 13.6549C15.1541 12.1551 15.9977 10.1216 16 8.00061C16 3.58946 12.4112 0.000610352 8 0.000610352ZM7.69231 13.8852V8.3083H2.15385H2.11538L12.0769 3.91946L7.69231 13.8852Z" fill="currentColor"></path>
  </symbol>
  <symbol fill="none" xmlns="http://www.w3.org/2000/svg" viewBox="0 0 36 30" id="ic_pc">
    <path d="M1.8 0.000610352H10.8C11.2774 0.000610352 11.7352 0.198154 12.0728 0.549785C12.4104 0.901416 12.6 1.37833 12.6 1.87561V28.1256C12.6 28.6229 12.4104 29.0998 12.0728 29.4514C11.7352 29.8031 11.2774 30.0006 10.8 30.0006H1.8C1.32261 30.0006 0.864773 29.8031 0.527208 29.4514C0.189642 29.0998 0 28.6229 0 28.1256V1.87561C0 1.37833 0.189642 0.901416 0.527208 0.549785C0.864773 0.198154 1.32261 0.000610352 1.8 0.000610352ZM1.8 20.6256V24.3756H5.4V20.6256H1.8ZM18 5.62561H32.4C33.3548 5.62561 34.2705 6.0207 34.9456 6.72396C35.6207 7.42722 36 8.38105 36 9.37561V20.6256C36 21.6202 35.6207 22.574 34.9456 23.2773C34.2705 23.9805 33.3548 24.3756 32.4 24.3756H18C17.0452 24.3756 16.1295 23.9805 15.4544 23.2773C14.7793 22.574 14.4 21.6202 14.4 20.6256V9.37561C14.4 8.38105 14.7793 7.42722 15.4544 6.72396C16.1295 6.0207 17.0452 5.62561 18 5.62561ZM21.6 26.2506H28.8C29.2774 26.2506 29.7352 26.4482 30.0728 26.7998C30.4104 27.1514 30.6 27.6283 30.6 28.1256C30.6 28.6229 30.4104 29.0998 30.0728 29.4514C29.7352 29.8031 29.2774 30.0006 28.8 30.0006H21.6C21.1226 30.0006 20.6648 29.8031 20.3272 29.4514C19.9896 29.0998 19.8 28.6229 19.8 28.1256C19.8 27.6283 19.9896 27.1514 20.3272 26.7998C20.6648 26.4482 21.1226 26.2506 21.6 26.2506Z" fill="currentColor"></path>
  </symbol>
  <symbol fill="none" xmlns="http://www.w3.org/2000/svg" viewBox="0 0 20 20" id="ic_phone">
    <path d="M13.125 0.625122H6.875C5.83947 0.625122 5 1.46459 5 2.50012V17.5001C5 18.5357 5.83947 19.3751 6.875 19.3751H13.125C14.1605 19.3751 15 18.5357 15 17.5001V2.50012C15 1.46459 14.1605 0.625122 13.125 0.625122Z" stroke="currentColor" stroke-width="1.5" stroke-linecap="round" stroke-linejoin="round"></path>
    <path d="M6.875 0.625122H7.8125C7.89538 0.625122 7.97487 0.658046 8.03347 0.716651C8.09208 0.775256 8.125 0.854742 8.125 0.937622C8.125 1.10338 8.19085 1.26235 8.30806 1.37956C8.42527 1.49677 8.58424 1.56262 8.75 1.56262H11.25C11.4158 1.56262 11.5747 1.49677 11.6919 1.37956C11.8092 1.26235 11.875 1.10338 11.875 0.937622C11.875 0.854742 11.9079 0.775256 11.9665 0.716651C12.0251 0.658046 12.1046 0.625122 12.1875 0.625122H13.125" stroke="currentColor" stroke-width="1.5" stroke-linecap="round" stroke-linejoin="round"></path>
  </symbol>
  <symbol fill="none" xmlns="http://www.w3.org/2000/svg" viewBox="0 0 44 44" id="ic_phone2">
    <path fill-rule="evenodd" clip-rule="evenodd" d="M6.45076 6.45076C10.5752 2.32636 16.1672 0.00643904 22 0C34.1307 0 44 9.86933 44 22C43.9936 27.8328 41.6736 33.4248 37.5492 37.5492C33.4248 41.6736 27.8328 43.9936 22 44C9.86933 44 0 34.1296 0 22C0.00643904 16.1672 2.32636 10.5752 6.45076 6.45076ZM30.1233 25.4566C31.7871 26.5247 32.6921 27.332 32.9485 27.6051C32.9718 27.6301 32.988 27.6608 32.9954 27.6941C33.0028 27.7274 33.0012 27.7622 32.9907 27.7946C32.6626 28.749 32.2441 29.6699 31.7409 30.5447C31.2502 31.3892 30.6859 32.1886 30.0545 32.9338C30.0323 32.9598 30.0034 32.9792 29.971 32.9901C29.9386 33.001 29.9038 33.0029 29.8704 32.9957C29.393 32.894 27.3953 32.4029 24.6295 30.8806C21.8038 29.3273 20.3119 28.186 18.0308 25.9128C15.7497 23.6396 14.6733 22.1934 13.12 19.3706C11.5976 16.6049 11.107 14.6081 11.0044 14.1298C10.9971 14.0965 10.9989 14.0618 11.0098 14.0294C11.0207 13.9971 11.0402 13.9683 11.0663 13.9462C11.8115 13.3147 12.6109 12.7502 13.4554 12.2593C14.3301 11.756 15.251 11.3375 16.2055 11.0095C16.2382 10.9988 16.2732 10.9971 16.3068 11.0046C16.3405 11.0121 16.3714 11.0286 16.3965 11.0522C16.6695 11.3086 17.4759 12.2136 18.5455 13.8769C19.6229 15.553 20.2947 16.7885 20.4514 17.1436C20.4652 17.1748 20.4703 17.2093 20.4661 17.2432C20.4618 17.2771 20.4484 17.3092 20.4273 17.3361C19.9819 17.9067 19.1633 18.8683 19.1191 18.9198C18.9517 19.1145 18.8822 19.1953 18.8712 19.2834C18.8635 19.3461 18.8853 19.4124 18.9226 19.5258C19.0798 20.0046 19.9112 21.5304 21.2086 22.8308C22.5061 24.1312 23.995 24.9218 24.4743 25.079C24.5875 25.1159 24.6536 25.1374 24.7162 25.1297C24.8043 25.1187 24.8851 25.0494 25.0798 24.8825C25.1314 24.8383 26.093 24.0202 26.6641 23.5748C26.691 23.5537 26.7231 23.5403 26.757 23.536C26.7909 23.5318 26.8253 23.5369 26.8566 23.5507C27.2112 23.7074 28.4472 24.3792 30.1233 25.4566Z" fill="currentColor"></path>
  </symbol>
  <symbol fill="none" xmlns="http://www.w3.org/2000/svg" viewBox="0 0 31 24" id="ic_ps">
    <path d="M30.9783 7.58467C30.9748 7.53768 30.9707 7.49074 30.9659 7.44387C30.8285 5.42657 29.9564 3.53772 28.5251 2.15695C27.0937 0.776174 25.2091 0.00581437 23.25 0.00069167H7.75C5.76342 -0.00857654 3.85016 0.774729 2.40978 2.18703C0.969404 3.59934 0.113264 5.53144 0.02015 7.57987C0.00465002 7.70627 0 7.83747 0 7.98466V18.4006C0 19.8806 0.57815 21.3254 1.5841 22.3622C2.60525 23.4094 3.98558 23.9982 5.425 24.0006C8.215 24.0006 9.3062 22.4006 10.85 19.2006C11.0763 18.7334 12.3876 16.0006 15.5 16.0006C18.5938 16.0006 19.9221 18.7318 20.15 19.2006C21.7062 22.4006 22.785 24.0006 25.575 24.0006C27.0087 24.0006 28.4084 23.4038 29.4128 22.3654C30.4273 21.3113 30.9977 19.8865 31 18.4006V8.00067C31 7.84867 30.9938 7.71267 30.9783 7.58467ZM7.75 11.2503C7.33717 11.2599 6.92664 11.1843 6.54251 11.0279C6.15838 10.8715 5.80839 10.6375 5.51308 10.3395C5.21778 10.0416 4.98311 9.68575 4.82287 9.29291C4.66262 8.90007 4.58002 8.47813 4.57992 8.05188C4.57981 7.62563 4.66221 7.20366 4.82226 6.81073C4.98232 6.4178 5.21681 6.06184 5.51197 5.76375C5.80713 5.46566 6.15701 5.23144 6.54107 5.07485C6.92513 4.91826 7.33562 4.84245 7.74845 4.85187C8.55842 4.87036 9.32919 5.21543 9.89577 5.81321C10.4624 6.411 10.7797 7.21398 10.7799 8.05028C10.7801 8.88658 10.4631 9.68973 9.89686 10.2878C9.33057 10.8859 8.55996 11.2313 7.75 11.2503ZM23.25 3.25028C23.6611 3.25028 24.0553 3.41885 24.346 3.71891C24.6367 4.01897 24.8 4.42593 24.8 4.85028C24.8 5.27462 24.6367 5.68159 24.346 5.98164C24.0553 6.2817 23.6611 6.45027 23.25 6.45027C22.8389 6.45027 22.4447 6.2817 22.154 5.98164C21.8633 5.68159 21.7 5.27462 21.7 4.85028C21.7 4.42593 21.8633 4.01897 22.154 3.71891C22.4447 3.41885 22.8389 3.25028 23.25 3.25028ZM20.15 9.65026C19.7389 9.65026 19.3447 9.48169 19.054 9.18163C18.7633 8.88157 18.6 8.47461 18.6 8.05027C18.6 7.62592 18.7633 7.21896 19.054 6.9189C19.3447 6.61884 19.7389 6.45027 20.15 6.45027C20.5611 6.45027 20.9553 6.61884 21.246 6.9189C21.5367 7.21896 21.7 7.62592 21.7 8.05027C21.7 8.47461 21.5367 8.88157 21.246 9.18163C20.9553 9.48169 20.5611 9.65026 20.15 9.65026ZM23.25 12.8502C22.8389 12.8502 22.4447 12.6817 22.154 12.3816C21.8633 12.0816 21.7 11.6746 21.7 11.2503C21.7 10.8259 21.8633 10.4189 22.154 10.1189C22.4447 9.81883 22.8389 9.65026 23.25 9.65026C23.6611 9.65026 24.0553 9.81883 24.346 10.1189C24.6367 10.4189 24.8 10.8259 24.8 11.2503C24.8 11.6746 24.6367 12.0816 24.346 12.3816C24.0553 12.6817 23.6611 12.8502 23.25 12.8502ZM26.35 9.65026C25.9389 9.65026 25.5447 9.48169 25.254 9.18163C24.9633 8.88157 24.8 8.47461 24.8 8.05027C24.8 7.62592 24.9633 7.21896 25.254 6.9189C25.5447 6.61884 25.9389 6.45027 26.35 6.45027C26.7611 6.45027 27.1553 6.61884 27.446 6.9189C27.7367 7.21896 27.9 7.62592 27.9 8.05027C27.9 8.47461 27.7367 8.88157 27.446 9.18163C27.1553 9.48169 26.7611 9.65026 26.35 9.65026Z" fill="currentColor"></path>
  </symbol>
  <symbol fill="none" xmlns="http://www.w3.org/2000/svg" viewBox="0 0 52 52" id="ic_tiktok">
    <path fill-rule="evenodd" clip-rule="evenodd" d="M25.9574 51.9149C40.2934 51.9149 51.9149 40.2934 51.9149 25.9574C51.9149 11.6215 40.2934 0 25.9574 0C11.6215 0 0 11.6215 0 25.9574C0 40.2934 11.6215 51.9149 25.9574 51.9149ZM31.218 19.7529V30.9822C31.218 35.3751 27.6633 38.9362 23.2784 38.9362C18.5948 38.9362 14.8585 34.8736 15.389 30.0741C15.7912 26.4361 18.7208 23.4928 22.3512 23.0808C22.8425 23.0251 23.3261 23.0143 23.7985 23.0449C24.0334 23.0601 24.2124 23.2634 24.2124 23.4992L24.2124 26.8133C24.2124 27.0889 23.971 27.293 23.6975 27.2624C23.3887 27.2279 23.0685 27.231 22.7417 27.2766C21.0958 27.5061 19.7718 28.8591 19.5707 30.5117C19.2862 32.8508 21.1578 34.8301 23.46 34.7209C25.474 34.6254 27.0147 32.8682 27.0147 30.8483V12.2539C27.0147 12.0026 27.218 11.7989 27.4688 11.7989H31.2316C31.4731 11.7989 31.6831 11.9816 31.6991 12.223C31.871 14.8239 33.624 17.6595 37.3151 17.869C37.5605 17.883 37.7565 18.0775 37.7565 18.3238V21.6299C37.7565 21.8841 37.5469 22.0931 37.2933 22.0859C32.5343 21.9507 31.218 19.7529 31.218 19.7529Z" fill="currentColor"></path>
  </symbol>
  <symbol fill="none" xmlns="http://www.w3.org/2000/svg" viewBox="0 0 19 19" id="ic_time">
    <path d="M9.5 0.000610352C4.25353 0.000610352 0 4.25414 0 9.50061C0 14.7389 4.26221 19.0006 9.5 19.0006C14.746 19.0006 19 14.7466 19 9.50061C19 4.26237 14.7382 0.000610352 9.5 0.000610352ZM14.4327 10.9621H8.95192C8.90347 10.9621 8.857 10.9429 8.82274 10.9086C8.78848 10.8744 8.76923 10.8279 8.76923 10.7795V3.10638C8.76923 3.05793 8.78848 3.01146 8.82274 2.9772C8.857 2.94294 8.90347 2.92369 8.95192 2.92369H10.0481C10.0965 2.92369 10.143 2.94294 10.1773 2.9772C10.2115 3.01146 10.2308 3.05793 10.2308 3.10638V9.50061H14.4327C14.4811 9.50061 14.5276 9.51986 14.5619 9.55412C14.5961 9.58838 14.6154 9.63485 14.6154 9.6833V10.7795C14.6154 10.8279 14.5961 10.8744 14.5619 10.9086C14.5276 10.9429 14.4811 10.9621 14.4327 10.9621Z" fill="currentColor"></path>
  </symbol>
  <symbol fill="none" xmlns="http://www.w3.org/2000/svg" viewBox="0 0 52 52" id="ic_twitch">
    <path fill-rule="evenodd" clip-rule="evenodd" d="M51.9149 25.9574C51.9149 40.2934 40.2934 51.9149 25.9574 51.9149C11.6215 51.9149 0 40.2934 0 25.9574C0 11.6215 11.6215 0 25.9574 0C40.2934 0 51.9149 11.6215 51.9149 25.9574ZM38.571 12.9787H19.6658C19.3964 12.9787 19.1379 13.085 18.9471 13.2759L14.4569 17.7648C14.2661 17.9557 14.1586 18.2142 14.1586 18.4848V36.3692C14.1586 36.9309 14.614 37.3852 15.1757 37.3852H20.7711V41.9743C20.7711 42.4201 21.3099 42.6435 21.6252 42.3283L26.5683 37.3852H30.0123C30.2817 37.3852 30.5402 37.2788 30.7311 37.088L39.2898 28.5305C39.4806 28.3397 39.5882 28.0811 39.5882 27.8117V13.9947C39.5882 13.4329 39.1327 12.9787 38.571 12.9787ZM38.7619 27.1812C38.7619 27.639 38.5831 28.0703 38.2593 28.394L35.1693 31.4841C34.8395 31.8102 34.4107 31.9866 33.9564 31.9866H29.9169L26.706 35.1975C26.4222 35.4813 26.0453 35.6384 25.6454 35.6384C24.8155 35.6384 24.1402 34.9643 24.1402 34.1344V31.9866H20.7711C19.8241 31.9866 19.0546 31.2171 19.0546 30.27V15.5215C19.0546 14.5745 19.8241 13.805 20.7711 13.805H37.0453C37.9924 13.805 38.7619 14.5745 38.7619 15.5215V27.1812ZM20.7714 15.0131H37.0455C37.3258 15.0131 37.5541 15.2402 37.5541 15.5216V27.1812C37.5541 27.3153 37.5009 27.4446 37.4055 27.54L34.3154 30.6301C34.22 30.7243 34.0907 30.7786 33.9566 30.7786H29.417L25.8522 34.3435C25.6662 34.5295 25.3484 34.3978 25.3484 34.1345V30.7786H20.7714C20.4899 30.7786 20.2628 30.5503 20.2628 30.2701V15.5216C20.2628 15.2402 20.4899 15.0131 20.7714 15.0131ZM28.2791 24.6758C28.3455 24.6758 28.3999 24.6215 28.3999 24.555V18.6938C28.3999 18.6262 28.3455 18.573 28.2791 18.573H26.4864C26.4187 18.573 26.3656 18.6262 26.3656 18.6938V24.555C26.3656 24.6215 26.4187 24.6758 26.4864 24.6758H28.2791ZM34.3819 24.6758C34.4483 24.6758 34.5027 24.6215 34.5027 24.555V18.6938C34.5027 18.6262 34.4483 18.573 34.3819 18.573H32.5892C32.5228 18.573 32.4684 18.6262 32.4684 18.6938V24.555C32.4684 24.6215 32.5228 24.6758 32.5892 24.6758H34.3819Z" fill="currentColor"></path>
  </symbol>
  <symbol fill="none" xmlns="http://www.w3.org/2000/svg" viewBox="0 0 52 52" id="ic_vk">
    <path fill-rule="evenodd" clip-rule="evenodd" d="M25.9574 51.9149C40.2934 51.9149 51.9149 40.2934 51.9149 25.9574C51.9149 11.6215 40.2934 0 25.9574 0C11.6215 0 0 11.6215 0 25.9574C0 40.2934 11.6215 51.9149 25.9574 51.9149ZM10.6189 16.5185C10.8584 28.3102 16.6067 35.3966 26.6847 35.3966H27.256V28.6504C30.9592 29.0283 33.7595 31.8062 34.8834 35.3966H40.116C38.6789 30.0299 34.9017 27.063 32.5435 25.9292C34.9017 24.5308 38.2181 21.1294 39.0103 16.5185H34.2568C33.225 20.2601 30.167 23.6615 27.256 23.9828V16.5185H22.5024V29.5952C19.5545 28.8393 15.8329 25.1733 15.6671 16.5185H10.6189Z" fill="currentColor"></path>
  </symbol>
</svg>